<svg width="30" height="30" viewBox="0 0 30 30" fill="none" xmlns="http://www.w3.org/2000/svg">
<path d="M15 0C6.71566 0 0 6.71566 0 15C0 23.2843 6.71566 30 15 30C23.2843 30 30 23.2843 30 15C30 6.71566 23.2843 0 15 0Z" fill="white"/>
<path d="M14.444 15.6069C14.055 15.6069 13.6659 15.6069 13.2769 15.6069C13.1662 15.6069 13.059 15.6001 12.974 15.51C12.8057 15.3309 12.82 15.0416 13.0076 14.8831C13.0818 14.8209 13.1708 14.8135 13.2615 14.8129C13.4959 14.8118 13.7304 14.8112 13.9648 14.8118C14.3088 14.8118 14.6528 14.814 14.9973 14.8146C15.1199 14.8146 15.1371 14.8004 15.1371 14.6794C15.1365 14.4997 15.1393 14.3201 15.1262 14.1409C15.0874 13.6042 14.7942 13.2402 14.3139 13.0343C13.849 12.8347 13.3761 12.8518 12.9324 13.105C12.5969 13.2961 12.3733 13.5848 12.3106 13.9749C12.2838 14.1415 12.2701 14.3115 12.2678 14.4803C12.2621 14.9196 12.2672 15.3582 12.2667 15.7975C12.2667 15.9355 12.249 16.0724 12.1201 16.154C12.0545 16.1951 11.9775 16.2241 11.9016 16.2418C11.7584 16.2755 11.6232 16.2298 11.5 16.1614C11.3808 16.0947 11.3306 15.9777 11.3317 15.8459C11.338 15.1979 11.2952 14.5488 11.3637 13.9025C11.395 13.6059 11.5165 13.3361 11.6803 13.0879C12.0083 12.5917 12.4612 12.2597 13.0385 12.1268C13.9768 11.91 14.8131 12.1085 15.4879 12.8215C15.7292 13.0765 15.8934 13.3823 15.9916 13.7268C16.0674 13.9949 16.0908 14.2641 16.0897 14.5391C16.0891 14.7336 16.0931 14.9281 16.0885 15.1226C16.0863 15.1962 16.0766 15.2738 16.0497 15.3411C15.9881 15.4963 15.8746 15.5932 15.7001 15.6024C15.6453 15.6052 15.5906 15.6064 15.5358 15.6064C15.1719 15.6064 14.8074 15.6064 14.4434 15.6064" fill="black"/>
<path d="M18.6565 14.0685C18.6565 14.8015 18.6559 15.5345 18.6565 16.2675C18.6565 16.8162 18.6588 17.365 18.6605 17.9138C18.6605 18.0518 18.6354 18.1847 18.5441 18.2902C18.4038 18.4522 18.2144 18.4716 18.0216 18.4249C17.7746 18.3655 17.7079 18.256 17.6822 17.9799C17.6674 17.8265 17.6782 17.6707 17.6782 17.5162V13.9704C17.6782 12.9231 17.6782 11.8758 17.6782 10.8279C17.6782 10.7982 17.6765 10.768 17.6782 10.7383C17.6811 10.6676 17.6474 10.6408 17.5778 10.6425C17.4529 10.6459 17.328 10.6505 17.2036 10.6436C17.0405 10.6339 16.8825 10.5974 16.794 10.44C16.6919 10.258 16.6919 10.0675 16.7815 9.88211C16.8579 9.7241 17.0097 9.67162 17.1677 9.66706C17.5065 9.65736 17.8459 9.66078 18.1848 9.66649C18.2629 9.66763 18.3433 9.69045 18.4169 9.7184C18.5932 9.784 18.6246 9.94657 18.6559 10.1046C18.6662 10.1576 18.6611 10.2141 18.6611 10.2689C18.6599 11.4856 18.6588 12.7029 18.6571 13.9196V14.0691H18.6559L18.6565 14.0685Z" fill="black"/>
<path d="M21.9677 16.5693C21.9677 17.3576 21.9677 18.1454 21.9677 18.9343C21.9677 19.3513 21.8394 19.73 21.6015 20.0683C21.4007 20.3529 21.1218 20.5109 20.7658 20.5109C20.5565 20.5109 20.3466 20.5029 20.1372 20.5132C19.9781 20.5212 19.8286 20.4881 19.6837 20.4356C19.3768 20.3238 19.3084 20.0489 19.4327 19.7916C19.4966 19.6593 19.6153 19.5789 19.7704 19.5806C19.8651 19.5811 19.9587 19.5954 20.0528 19.6028C20.172 19.6125 20.2918 19.6336 20.4104 19.6296C20.7601 19.6188 20.893 19.4779 20.9632 19.1356C21.0071 18.9229 21.01 18.6993 21.01 18.4808C21.014 17.0393 21.0122 15.5973 21.0122 14.1552C21.0122 14.1256 21.0117 14.0948 21.0134 14.0657C21.0271 13.8255 21.1389 13.6846 21.3551 13.635C21.5884 13.5814 21.8314 13.6681 21.9272 13.8546C21.9614 13.9213 21.9677 14.008 21.9683 14.0851C21.9723 14.6886 21.9711 15.2927 21.9717 15.8962C21.9717 16.1209 21.9717 16.3451 21.9717 16.5698H21.9683L21.9677 16.5693Z" fill="black"/>
<path d="M21.0015 12.1176C20.9764 12.0498 20.9536 11.9853 20.9291 11.9214C20.8087 11.6037 20.706 11.286 20.7146 10.9363C20.7277 10.3967 21.0768 9.92207 21.5497 9.72584C21.7602 9.63913 21.9747 9.59122 22.2023 9.58038C22.6911 9.55699 23.168 9.61004 23.63 9.77547C23.6768 9.79201 23.7236 9.81026 23.7687 9.83194C23.974 9.93005 24.0567 10.1354 23.9997 10.355C23.9135 10.687 23.6477 10.7172 23.4201 10.6345C23.1389 10.5324 22.8491 10.4543 22.5445 10.4697C22.3255 10.4811 22.1195 10.5376 21.9461 10.675C21.8041 10.7874 21.7163 10.9323 21.7088 11.1217C21.7003 11.3379 21.7077 11.5495 21.8035 11.7503C21.8463 11.8398 21.8811 11.9345 21.9073 12.0298C21.9336 12.1245 21.9895 12.153 22.0825 12.1519C22.4019 12.1485 22.7214 12.1485 23.0408 12.1519C23.1144 12.153 23.1902 12.1627 23.2604 12.1844C23.4475 12.2431 23.5388 12.3646 23.5416 12.5609C23.5428 12.6487 23.5393 12.744 23.5074 12.8238C23.4344 13.0064 23.2792 13.0794 23.0893 13.0805C22.69 13.0817 22.2912 13.0805 21.8919 13.0805H20.7693C20.7197 13.0805 20.6695 13.0817 20.6199 13.0783C20.3643 13.06 20.2337 12.9071 20.2143 12.6527C20.1847 12.27 20.4345 12.153 20.7123 12.1496C20.8041 12.1485 20.9 12.1718 21.0026 12.1171" fill="black"/>
<path d="M10.1075 16.6212C10.1315 16.9634 10.0568 17.2846 9.88394 17.5806C9.65349 17.9748 9.32321 18.252 8.88683 18.3918C8.50179 18.515 8.10991 18.5447 7.70661 18.4768C7.42539 18.43 7.14873 18.3718 6.88291 18.2692C6.71578 18.2047 6.55092 18.1328 6.38778 18.0587C6.25259 17.9976 6.14478 17.9109 6.09686 17.758C6.00559 17.4677 6.17615 17.203 6.47905 17.1802C6.65303 17.1677 6.81275 17.2253 6.97247 17.2823C7.17896 17.3565 7.38204 17.4415 7.59367 17.4939C7.90455 17.5709 8.21943 17.612 8.53773 17.5122C8.8315 17.4198 9.10587 17.1083 9.1304 16.8094C9.16235 16.4198 9.03286 16.1283 8.69574 15.9298C8.6444 15.8996 8.59705 15.8602 8.54343 15.8363C8.32667 15.7387 8.25765 15.4581 8.39227 15.2322C8.5132 15.0285 8.7505 14.9396 8.96041 15.0474C9.20342 15.1723 9.44642 15.3058 9.66375 15.4695C9.93984 15.6771 10.0636 15.9846 10.1053 16.3223C10.1172 16.4204 10.107 16.5214 10.107 16.6212" fill="black"/>
<path d="M8.21637 12.0298C8.76683 12.0509 9.2825 12.1838 9.7628 12.4519C9.95504 12.5586 10.0326 12.7217 10.0064 12.9385C9.97272 13.218 9.72401 13.3886 9.45534 13.3081C9.3076 13.2642 9.16157 13.2106 9.01896 13.1524C8.68298 13.0149 8.33616 12.9699 7.97907 13.0246C7.61856 13.08 7.3014 13.323 7.3054 13.7702C7.30768 14.0178 7.38183 14.2185 7.58262 14.368C7.64651 14.4153 7.7104 14.4633 7.77372 14.5117C8.02071 14.7023 8.00474 15.0474 7.74177 15.2191C7.59803 15.3126 7.44116 15.3446 7.28771 15.2658C7.01961 15.1295 6.76691 14.9698 6.59407 14.712C6.34308 14.3378 6.27349 13.9248 6.33396 13.4833C6.38586 13.1079 6.54901 12.7925 6.82795 12.5358C7.08863 12.2956 7.39667 12.153 7.74292 12.0926C7.89978 12.0652 8.05893 12.0503 8.21694 12.0292" fill="black"/>
<path d="M13.69 18.5321C13.2508 18.5195 12.8349 18.4403 12.4607 18.2012C12.2229 18.0489 12.0164 17.8618 11.8452 17.6388C11.6787 17.422 11.7186 17.1448 11.9319 16.9737C12.1242 16.8185 12.4048 16.8442 12.576 17.0438C12.6906 17.1779 12.8172 17.2954 12.9616 17.3952C13.1196 17.5048 13.2918 17.5778 13.4881 17.5858C13.5531 17.5886 13.6176 17.5943 13.682 17.5977C13.9929 17.6148 14.2855 17.5435 14.5656 17.4141C14.7054 17.349 14.8428 17.2772 14.9837 17.2144C15.2302 17.1055 15.4943 17.1996 15.5781 17.442C15.6574 17.6725 15.6186 17.8898 15.403 18.0199C15.055 18.2303 14.6848 18.3889 14.2815 18.4568C14.0859 18.4899 13.8874 18.507 13.69 18.5315" fill="black"/>
</svg>
