<svg width="22" height="22" viewBox="0 0 22 22" fill="none" xmlns="http://www.w3.org/2000/svg">
<g id="icon/checkmark" clip-path="url(#clip0_1623_12289)">
<path id="Vector" d="M20.8823 3.66378C21.2625 4.02323 21.4844 4.51897 21.4992 5.04199C21.514 5.56502 21.3205 6.07251 20.9612 6.45289L9.77849 18.2934C9.59725 18.485 9.37945 18.6383 9.13797 18.7442C8.89649 18.8502 8.63622 18.9067 8.37253 18.9104C8.10885 18.914 7.8471 18.8648 7.60276 18.7657C7.35842 18.6665 7.13643 18.5193 6.94991 18.3329L1.02965 12.4126C0.68106 12.0385 0.491287 11.5437 0.500307 11.0325C0.509328 10.5212 0.716437 10.0334 1.078 9.67188C1.43957 9.31031 1.92736 9.1032 2.43861 9.09418C2.94986 9.08516 3.44465 9.27493 3.81875 9.62352L8.305 14.1071L18.0932 3.74272C18.4526 3.3625 18.9484 3.14059 19.4714 3.12579C19.9944 3.11099 20.5019 3.3045 20.8823 3.66378Z" fill="#0E1C42"/>
</g>
<defs>
<clipPath id="clip0_1623_12289">
<rect width="21" height="21" fill="white" transform="translate(0.5 0.5)"/>
</clipPath>
</defs>
</svg>
