<svg width="393" height="852" viewBox="0 0 393 852" fill="none" xmlns="http://www.w3.org/2000/svg">
<path fill-rule="evenodd" clip-rule="evenodd" d="M393 0H0V852H393V0ZM42 166C28.1929 166 17 177.193 17 191V561C17 574.807 28.1929 586 42 586H352C365.807 586 377 574.807 377 561V191C377 177.193 365.807 166 352 166H42Z" fill="black" fill-opacity="0.5"/>
<path d="M87 165H42C28.1929 165 17 176.193 17 190V246.667M307 165H352C365.807 165 377 176.193 377 190V246.667M377 503.333V560C377 573.807 365.807 585 352 585H307M87 585H42C28.1929 585 17 573.807 17 560V503.333" stroke="white" stroke-width="5" stroke-linecap="round"/>
</svg>
