<svg width="42" height="43" viewBox="0 0 42 43" fill="none" xmlns="http://www.w3.org/2000/svg">
<rect y="0.5" width="42" height="42" rx="8" fill="white"/>
<g clip-path="url(#clip0_350_17392)">
<path d="M31.0208 15.96L31.0207 15.96L18.2408 29.4917C18.0796 29.6621 17.8858 29.7984 17.6711 29.8927L17.872 30.3506L17.6711 29.8927C17.4563 29.987 17.2248 30.0372 16.9902 30.0405C16.7557 30.0437 16.5228 30 16.3055 29.9117C16.0882 29.8235 15.8907 29.6926 15.7248 29.5268L8.96549 22.7675C8.65901 22.4355 8.4923 21.9979 8.50027 21.5459C8.5083 21.0912 8.69252 20.6573 9.01413 20.3357C9.33574 20.0141 9.76962 19.8299 10.2244 19.8218C10.6764 19.8139 11.1139 19.9806 11.446 20.2871L16.5665 25.4047L16.9304 25.7683L17.2835 25.3943L28.4698 13.5495C28.7896 13.2113 29.2305 13.0139 29.6957 13.0007C30.1609 12.9875 30.6122 13.1596 30.9505 13.4791C31.2887 13.7988 31.4861 14.2398 31.4993 14.705C31.5125 15.1702 31.3403 15.6216 31.0208 15.96Z" fill="#0E1C42" stroke="#00C887"/>
</g>
<defs>
<clipPath id="clip0_350_17392">
<rect width="24" height="24" fill="white" transform="translate(8 9.5)"/>
</clipPath>
</defs>
</svg>
