<svg width="100" height="100" viewBox="0 0 100 100" fill="none" xmlns="http://www.w3.org/2000/svg">
<path d="M50 0C22.3855 0 0 22.3855 0 50C0 77.6145 22.3855 100 50 100C77.6145 100 100 77.6145 100 50C100 22.3855 77.6145 0 50 0Z" fill="black"/>
<path d="M48.1461 52.0231C46.8493 52.0231 45.5525 52.0231 44.2557 52.0231C43.8869 52.0231 43.5294 52.0003 43.2461 51.6999C42.6852 51.1028 42.7327 50.1388 43.3583 49.6102C43.6054 49.403 43.9021 49.3782 44.2044 49.3763C44.9859 49.3725 45.7674 49.3706 46.5489 49.3725C47.6954 49.3725 48.842 49.3801 49.9904 49.382C50.3993 49.382 50.4563 49.3345 50.4563 48.9314C50.4544 48.3324 50.4639 47.7335 50.4202 47.1364C50.2909 45.3472 49.3135 44.1341 47.7125 43.4477C46.1629 42.7822 44.5866 42.8392 43.1073 43.6835C41.9892 44.3204 41.2439 45.2826 41.0347 46.5831C40.9453 47.1383 40.8997 47.705 40.8921 48.2678C40.8731 49.7319 40.8902 51.1941 40.8883 52.6582C40.8883 53.1183 40.8294 53.5747 40.3996 53.8466C40.181 53.9835 39.9243 54.0805 39.6714 54.1394C39.1941 54.2516 38.7435 54.0995 38.3328 53.8713C37.9354 53.6488 37.7681 53.2591 37.7719 52.8198C37.7928 50.6598 37.6502 48.496 37.8783 46.3416C37.9829 45.3529 38.3879 44.4535 38.9336 43.6264C40.027 41.9722 41.5367 40.8655 43.4609 40.4225C46.5888 39.7 49.3763 40.3617 51.6257 42.7384C52.43 43.5884 52.9776 44.6075 53.3046 45.756C53.5575 46.6497 53.6355 47.5472 53.6317 48.4636C53.6298 49.112 53.6431 49.7604 53.6279 50.4088C53.6203 50.6541 53.5879 50.9127 53.4986 51.1371C53.2932 51.6542 52.9148 51.9775 52.333 52.0079C52.1505 52.0174 51.9679 52.0212 51.7854 52.0212C50.5723 52.0212 49.3573 52.0212 48.1442 52.0212" fill="white"/>
<path d="M62.1882 46.895C62.1882 49.3383 62.1863 51.7816 62.1882 54.225C62.1882 56.0541 62.1958 57.8833 62.2015 59.7125C62.2015 60.1726 62.1178 60.6157 61.8136 60.9674C61.3458 61.5075 60.7145 61.5721 60.0719 61.4162C59.2485 61.2184 59.0261 60.8534 58.9405 59.9331C58.8911 59.4216 58.9272 58.9025 58.9272 58.3872V46.5679C58.9272 43.0769 58.9272 39.5859 58.9272 36.0929C58.9272 35.9941 58.9215 35.8933 58.9272 35.7944C58.9367 35.5586 58.8245 35.4693 58.5926 35.475C58.1761 35.4864 57.7597 35.5016 57.3452 35.4788C56.8014 35.4464 56.2747 35.3248 55.98 34.8C55.6396 34.1934 55.6396 33.5583 55.9382 32.9404C56.193 32.4137 56.6987 32.2387 57.2254 32.2235C58.3549 32.1912 59.4862 32.2026 60.6157 32.2216C60.8762 32.2254 61.1443 32.3015 61.3896 32.3947C61.9771 32.6133 62.0817 33.1552 62.1863 33.6819C62.2205 33.8588 62.2034 34.047 62.2034 34.2295C62.1996 38.2853 62.1958 42.3429 62.1901 46.3987V46.8969H62.1863L62.1882 46.895Z" fill="white"/>
<path d="M73.224 55.2308C73.224 57.8586 73.224 60.4845 73.224 63.1142C73.224 64.5041 72.7962 65.7667 72.0033 66.8942C71.334 67.843 70.4042 68.3697 69.2177 68.3697C68.5199 68.3697 67.8201 68.3431 67.1223 68.3773C66.5918 68.4039 66.0936 68.2937 65.6107 68.1187C64.5877 67.746 64.3595 66.8296 64.7741 65.972C64.987 65.5309 65.3825 65.2628 65.8997 65.2685C66.2153 65.2704 66.5272 65.3179 66.8409 65.3426C67.2383 65.375 67.6376 65.4453 68.0331 65.432C69.1987 65.3959 69.6417 64.9262 69.8756 63.7854C70.022 63.0761 70.0315 62.3308 70.0315 61.6025C70.0448 56.7976 70.0391 51.9908 70.0391 47.184C70.0391 47.0851 70.0372 46.9824 70.0429 46.8855C70.0885 46.085 70.4612 45.6153 71.1819 45.4499C71.9596 45.2711 72.7696 45.5602 73.089 46.1819C73.2031 46.4044 73.224 46.6934 73.2259 46.9501C73.2392 48.9618 73.2354 50.9754 73.2373 52.9872C73.2373 53.7363 73.2373 54.4836 73.2373 55.2327H73.2259L73.224 55.2308Z" fill="white"/>
<path d="M70.0031 40.3921C69.9194 40.1658 69.8434 39.9509 69.7616 39.738C69.3604 38.6789 69.0181 37.6198 69.0467 36.4542C69.0904 34.6555 70.2541 33.0735 71.8303 32.4194C72.532 32.1304 73.2469 31.9706 74.0056 31.9345C75.6351 31.8566 77.2247 32.0334 78.7649 32.5848C78.9208 32.6399 79.0767 32.7008 79.2269 32.773C79.9114 33.1001 80.1871 33.7846 79.997 34.5167C79.7099 35.6233 78.8238 35.7241 78.0651 35.4484C77.1277 35.108 76.1618 34.8475 75.1464 34.8988C74.4163 34.9369 73.7299 35.1251 73.1518 35.5834C72.6784 35.9579 72.3856 36.4409 72.3608 37.0722C72.3323 37.7928 72.357 38.4983 72.6765 39.1676C72.8191 39.4661 72.9351 39.7817 73.0225 40.0993C73.11 40.4149 73.2963 40.51 73.6063 40.5062C74.6711 40.4948 75.7359 40.4948 76.8007 40.5062C77.046 40.51 77.2989 40.5423 77.5327 40.6145C78.1564 40.8104 78.4606 41.2154 78.4701 41.8695C78.4739 42.1623 78.4625 42.4798 78.3561 42.746C78.1127 43.3545 77.5955 43.5979 76.9623 43.6017C75.6313 43.6055 74.3022 43.6017 72.9712 43.6017H69.2292C69.0638 43.6017 68.8964 43.6055 68.731 43.5941C67.8792 43.5332 67.4437 43.0237 67.3791 42.1756C67.2802 40.8998 68.113 40.51 69.039 40.4986C69.3452 40.4948 69.6646 40.5727 70.0069 40.3902" fill="white"/>
<path d="M33.6914 55.4039C33.7713 56.5447 33.5222 57.6152 32.9461 58.6021C32.1779 59.916 31.0769 60.8401 29.6224 61.3059C28.3389 61.7166 27.0326 61.8155 25.6883 61.5892C24.7509 61.4333 23.8287 61.2394 22.9426 60.8971C22.3855 60.6822 21.836 60.4427 21.2922 60.1955C20.8416 59.992 20.4822 59.703 20.3225 59.1934C20.0182 58.2256 20.5868 57.3433 21.5964 57.2673C22.1764 57.2254 22.7088 57.4175 23.2412 57.6076C23.9295 57.8548 24.6064 58.1381 25.3118 58.3131C26.3481 58.5697 27.3977 58.7067 28.4587 58.3739C29.4379 58.0659 30.3525 57.0277 30.4343 56.0313C30.5407 54.7327 30.1091 53.761 28.9854 53.0993C28.8142 52.9986 28.6564 52.8674 28.4777 52.7875C27.7552 52.4624 27.5251 51.5269 27.9738 50.7739C28.3769 50.0951 29.1679 49.7985 29.8676 50.1578C30.6777 50.5742 31.4877 51.0192 32.2121 51.5649C33.1324 52.257 33.545 53.2819 33.6838 54.4075C33.7237 54.7346 33.6895 55.0711 33.6895 55.4039" fill="white"/>
<path d="M27.3881 40.0993C29.223 40.1696 30.9419 40.6126 32.5429 41.5063C33.1837 41.8619 33.4423 42.4057 33.3548 43.1282C33.2427 44.0599 32.4136 44.6285 31.5181 44.3604C31.0256 44.2139 30.5388 44.0352 30.0635 43.8413C28.9435 43.383 27.7874 43.2328 26.5972 43.4153C25.3955 43.5998 24.3383 44.4098 24.3516 45.9005C24.3592 46.7257 24.6064 47.395 25.2757 47.8932C25.4886 48.051 25.7016 48.2108 25.9126 48.3724C26.736 49.0074 26.6827 50.1578 25.8062 50.7301C25.327 51.042 24.8041 51.1485 24.2926 50.8861C23.3989 50.4316 22.5566 49.8992 21.9805 49.0398C21.1439 47.7924 20.9119 46.4158 21.1134 44.9441C21.2865 43.693 21.8303 42.6415 22.7601 41.7858C23.629 40.9853 24.6558 40.51 25.81 40.3084C26.3329 40.2171 26.8634 40.1677 27.3901 40.0974" fill="white"/>
<path d="M45.6343 61.7737C44.1702 61.7318 42.7841 61.4675 41.5367 60.6708C40.7438 60.1631 40.0555 59.5395 39.4851 58.796C38.9299 58.0735 39.063 57.1494 39.7741 56.5789C40.4149 56.0618 41.3504 56.1473 41.9208 56.8128C42.303 57.2597 42.7251 57.6514 43.2062 57.9841C43.7329 58.3492 44.3071 58.5926 44.9612 58.6192C45.178 58.6287 45.3928 58.6477 45.6077 58.6591C46.644 58.7162 47.6194 58.4785 48.553 58.0468C49.0189 57.8301 49.4771 57.5905 49.9468 57.3813C50.7682 57.0182 51.6486 57.3319 51.9281 58.14C52.1924 58.9082 52.0631 59.6326 51.3443 60.0662C50.1844 60.7678 48.9504 61.2964 47.6061 61.5227C46.9539 61.6329 46.2922 61.69 45.6343 61.7717" fill="white"/>
</svg>
