<svg width="49" height="48" viewBox="0 0 49 48" fill="none" xmlns="http://www.w3.org/2000/svg">
<circle cx="24.5" cy="24" r="24" fill="#005FF9" fill-opacity="0.1"/>
<path d="M15.25 30.0137C15.2574 31.5262 16.4858 32.75 18 32.75H32.0017L31.7745 32.5228L22.8887 23.1144C22.7942 23.0142 22.6365 23.0094 22.536 23.1036L16.5217 28.7421L15.25 30.0137Z" fill="#0E1C42"/>
<path d="M33.6058 32.2327C34.2988 31.7334 34.75 30.9194 34.75 30V28.3358L31.7154 25.3012C31.624 25.2097 31.4779 25.2031 31.3786 25.2859L28.9301 27.3265L32.8503 31.4773L33.6058 32.2327Z" fill="#0E1C42"/>
<path d="M27.75 20.625C27.75 20.2108 28.0858 19.875 28.5 19.875C28.9142 19.875 29.25 20.2108 29.25 20.625C29.25 21.0392 28.9142 21.375 28.5 21.375C28.0858 21.375 27.75 21.0392 27.75 20.625Z" fill="#0E1C42"/>
<path fill-rule="evenodd" clip-rule="evenodd" d="M34.75 18V26.2145L32.7762 24.2406C32.1361 23.6004 31.1136 23.5541 30.4182 24.1336L27.8982 26.2339L23.9793 22.0844C23.3174 21.3836 22.2133 21.35 21.5101 22.0093L15.4781 27.6643L15.25 27.8924V18C15.25 16.4812 16.4812 15.25 18 15.25H32C33.5188 15.25 34.75 16.4812 34.75 18ZM28.5 18.375C27.2574 18.375 26.25 19.3824 26.25 20.625C26.25 21.8676 27.2574 22.875 28.5 22.875C29.7426 22.875 30.75 21.8676 30.75 20.625C30.75 19.3824 29.7426 18.375 28.5 18.375Z" fill="#0E1C42"/>
</svg>
