<svg width="24" height="24" viewBox="0 0 24 24" fill="none" xmlns="http://www.w3.org/2000/svg">
<circle cx="12" cy="12" r="12" fill="#00A36D"/>
<g clip-path="url(#clip0_42_2958)">
<path d="M17.647 7.80788C17.8643 8.01328 17.9911 8.29655 17.9995 8.59542C18.008 8.89429 17.8974 9.18429 17.6921 9.40165L11.302 16.1677C11.1984 16.2771 11.074 16.3647 10.936 16.4253C10.798 16.4858 10.6493 16.5181 10.4986 16.5202C10.3479 16.5223 10.1983 16.4942 10.0587 16.4375C9.91909 16.3808 9.79224 16.2968 9.68566 16.1902L6.30265 12.8072C6.10346 12.5934 5.99502 12.3107 6.00018 12.0186C6.00533 11.7264 6.12368 11.4477 6.33029 11.2411C6.5369 11.0345 6.81563 10.9161 7.10778 10.911C7.39992 10.9058 7.68266 11.0142 7.89643 11.2134L10.46 13.7755L16.0532 7.85298C16.2586 7.63571 16.5419 7.50891 16.8408 7.50045C17.1397 7.49199 17.4297 7.60257 17.647 7.80788Z" fill="white"/>
</g>
<defs>
<clipPath id="clip0_42_2958">
<rect width="12" height="12" fill="white" transform="translate(6 6)"/>
</clipPath>
</defs>
</svg>
