<svg width="60" height="60" viewBox="0 0 60 60" fill="none" xmlns="http://www.w3.org/2000/svg">
<g id="multiply.circle">
<path id="multiply.circle_2" d="M29.9819 48.7333C40.6606 48.7333 49.4748 39.9191 49.4748 29.2592C49.4748 18.5993 40.6417 9.78516 29.963 9.78516C19.3032 9.78516 10.5078 18.5993 10.5078 29.2592C10.5078 39.9191 19.322 48.7333 29.9819 48.7333ZM29.9819 44.8535C21.3372 44.8535 14.4252 37.9039 14.4252 29.2592C14.4252 20.6145 21.3372 13.6837 29.963 13.6837C38.6077 13.6837 45.5573 20.6145 45.5762 29.2592C45.595 37.9039 38.6265 44.8535 29.9819 44.8535ZM23.8044 37.1694C24.2941 37.1694 24.7273 36.9999 25.0474 36.6609L29.9819 31.7264L34.9163 36.6609C35.2365 36.981 35.6508 37.1694 36.1593 37.1694C37.1198 37.1694 37.8732 36.416 37.8732 35.4555C37.8732 34.9847 37.6849 34.5703 37.3647 34.2501L32.4114 29.2969L37.3647 24.3248C37.7225 23.9669 37.892 23.5903 37.892 23.1383C37.892 22.1777 37.1387 21.4244 36.1782 21.4244C35.7073 21.4244 35.3118 21.5751 34.954 21.9329L29.9819 26.8862L25.0098 21.9517C24.6896 21.6127 24.2941 21.4432 23.8044 21.4432C22.8439 21.4432 22.0905 22.1777 22.0905 23.1383C22.0905 23.6091 22.2789 24.0234 22.6179 24.3436L27.5523 29.2969L22.6179 34.269C22.2789 34.5703 22.0905 35.0035 22.0905 35.4555C22.0905 36.416 22.8439 37.1694 23.8044 37.1694Z" fill="#2C7CF6"/>
</g>
</svg>
