<svg width="100" height="100" viewBox="0 0 100 100" fill="none" xmlns="http://www.w3.org/2000/svg">
<g clip-path="url(#clip0_2028_4482)">
<path d="M50 100C77.6145 100 100 77.6145 100 50C100 22.3855 77.6145 0 50 0C22.3855 0 0 22.3855 0 50C0 77.6145 22.3855 100 50 100Z" fill="#FFC048"/>
<path d="M66.6603 61.2698C66.8638 64.1276 66.2344 66.8086 64.795 69.2748C62.8746 72.5681 60.1156 74.8783 56.4725 76.042C53.2552 77.0707 49.9867 77.3179 46.6211 76.755C44.2729 76.3614 41.9664 75.8804 39.7475 75.0228C38.3537 74.4847 36.979 73.8858 35.6176 73.2678C34.49 72.7582 33.5906 72.0338 33.1894 70.756C32.427 68.3317 33.8511 66.1279 36.3781 65.9378C37.8327 65.8294 39.1618 66.3124 40.4985 66.7915C42.2193 67.4076 43.9192 68.1206 45.6856 68.558C48.2773 69.1987 50.907 69.5429 53.5652 68.7101C56.0199 67.9419 58.3092 65.3426 58.5146 62.8499C58.7827 59.5965 57.6989 57.1627 54.8867 55.5047C54.4569 55.2518 54.0633 54.9247 53.6127 54.7213C51.8044 53.9094 51.2283 51.5687 52.3502 49.6768C53.3579 47.9788 55.3392 47.2353 57.0904 48.1347C59.1173 49.1767 61.1443 50.2928 62.9601 51.6581C65.2647 53.3903 66.2971 55.9553 66.6432 58.7751C66.744 59.5946 66.6584 60.437 66.6584 61.2679" fill="white"/>
<path d="M50.8784 22.9503C55.4723 23.1252 59.7771 24.2394 63.7853 26.4736C65.3882 27.3654 66.0366 28.7287 65.8179 30.537C65.5346 32.87 63.4621 34.2923 61.2165 33.623C59.9825 33.256 58.7674 32.8111 57.5752 32.3243C54.7725 31.1777 51.8748 30.8013 48.8933 31.2576C45.8853 31.7197 43.2366 33.7466 43.2708 37.4791C43.2879 39.5459 43.9078 41.2211 45.5848 42.4646C46.1191 42.862 46.6515 43.2613 47.1801 43.6682C49.2413 45.2559 49.112 48.1423 46.9158 49.5722C45.716 50.3556 44.4078 50.618 43.1225 49.962C40.8883 48.823 38.7758 47.4901 37.3345 45.3396C35.2391 42.2136 34.6573 38.7683 35.1631 35.0871C35.5928 31.9554 36.9599 29.32 39.2873 27.1771C41.4625 25.1749 44.0352 23.9827 46.9253 23.477C48.2335 23.2507 49.5607 23.1252 50.8784 22.9522" fill="white"/>
</g>
<defs>
<clipPath id="clip0_2028_4482">
<rect width="100" height="100" fill="white"/>
</clipPath>
</defs>
</svg>
