<svg width="379" height="242" viewBox="0 0 379 242" fill="none" xmlns="http://www.w3.org/2000/svg">
<path d="M356.219 207.9C356.219 207.967 356.193 208.02 356.139 208.06C356.099 208.087 356.046 208.087 355.979 208.06L347.919 204.3C347.826 204.247 347.779 204.173 347.779 204.08V203.12C347.779 203.027 347.826 202.953 347.919 202.9L355.979 199.14L356.059 199.12C356.166 199.12 356.219 199.18 356.219 199.3V200.28C356.219 200.387 356.166 200.46 356.059 200.5L349.319 203.54C349.239 203.58 349.239 203.62 349.319 203.66L356.059 206.7C356.166 206.74 356.219 206.813 356.219 206.92V207.9Z" fill="white"/>
<path d="M345.419 207.9C345.419 207.967 345.393 208.02 345.339 208.06C345.299 208.087 345.246 208.087 345.179 208.06L337.119 204.3C337.026 204.247 336.979 204.173 336.979 204.08V203.12C336.979 203.027 337.026 202.953 337.119 202.9L345.179 199.14L345.259 199.12C345.366 199.12 345.419 199.18 345.419 199.3V200.28C345.419 200.387 345.366 200.46 345.259 200.5L338.519 203.54C338.439 203.58 338.439 203.62 338.519 203.66L345.259 206.7C345.366 206.74 345.419 206.813 345.419 206.92V207.9Z" fill="white"/>
<path d="M334.619 207.9C334.619 207.967 334.593 208.02 334.539 208.06C334.499 208.087 334.446 208.087 334.379 208.06L326.319 204.3C326.226 204.247 326.179 204.173 326.179 204.08V203.12C326.179 203.027 326.226 202.953 326.319 202.9L334.379 199.14L334.459 199.12C334.566 199.12 334.619 199.18 334.619 199.3V200.28C334.619 200.387 334.566 200.46 334.459 200.5L327.719 203.54C327.639 203.58 327.639 203.62 327.719 203.66L334.459 206.7C334.566 206.74 334.619 206.813 334.619 206.92V207.9Z" fill="white"/>
<path d="M323.819 207.9C323.819 207.967 323.793 208.02 323.739 208.06C323.699 208.087 323.646 208.087 323.579 208.06L315.519 204.3C315.426 204.247 315.379 204.173 315.379 204.08V203.12C315.379 203.027 315.426 202.953 315.519 202.9L323.579 199.14L323.659 199.12C323.766 199.12 323.819 199.18 323.819 199.3V200.28C323.819 200.387 323.766 200.46 323.659 200.5L316.919 203.54C316.839 203.58 316.839 203.62 316.919 203.66L323.659 206.7C323.766 206.74 323.819 206.813 323.819 206.92V207.9Z" fill="white"/>
<path d="M313.019 207.9C313.019 207.967 312.993 208.02 312.939 208.06C312.899 208.087 312.846 208.087 312.779 208.06L304.719 204.3C304.626 204.247 304.579 204.173 304.579 204.08V203.12C304.579 203.027 304.626 202.953 304.719 202.9L312.779 199.14L312.859 199.12C312.966 199.12 313.019 199.18 313.019 199.3V200.28C313.019 200.387 312.966 200.46 312.859 200.5L306.119 203.54C306.039 203.58 306.039 203.62 306.119 203.66L312.859 206.7C312.966 206.74 313.019 206.813 313.019 206.92V207.9Z" fill="white"/>
<path d="M302.219 207.9C302.219 207.967 302.193 208.02 302.139 208.06C302.099 208.087 302.046 208.087 301.979 208.06L293.919 204.3C293.826 204.247 293.779 204.173 293.779 204.08V203.12C293.779 203.027 293.826 202.953 293.919 202.9L301.979 199.14L302.059 199.12C302.166 199.12 302.219 199.18 302.219 199.3V200.28C302.219 200.387 302.166 200.46 302.059 200.5L295.319 203.54C295.239 203.58 295.239 203.62 295.319 203.66L302.059 206.7C302.166 206.74 302.219 206.813 302.219 206.92V207.9Z" fill="white"/>
<path d="M291.419 207.9C291.419 207.967 291.393 208.02 291.339 208.06C291.299 208.087 291.246 208.087 291.179 208.06L283.119 204.3C283.026 204.247 282.979 204.173 282.979 204.08V203.12C282.979 203.027 283.026 202.953 283.119 202.9L291.179 199.14L291.259 199.12C291.366 199.12 291.419 199.18 291.419 199.3V200.28C291.419 200.387 291.366 200.46 291.259 200.5L284.519 203.54C284.439 203.58 284.439 203.62 284.519 203.66L291.259 206.7C291.366 206.74 291.419 206.813 291.419 206.92V207.9Z" fill="white"/>
<path d="M280.619 207.9C280.619 207.967 280.593 208.02 280.539 208.06C280.499 208.087 280.446 208.087 280.379 208.06L272.319 204.3C272.226 204.247 272.179 204.173 272.179 204.08V203.12C272.179 203.027 272.226 202.953 272.319 202.9L280.379 199.14L280.459 199.12C280.566 199.12 280.619 199.18 280.619 199.3V200.28C280.619 200.387 280.566 200.46 280.459 200.5L273.719 203.54C273.639 203.58 273.639 203.62 273.719 203.66L280.459 206.7C280.566 206.74 280.619 206.813 280.619 206.92V207.9Z" fill="white"/>
<path d="M269.819 207.9C269.819 207.967 269.793 208.02 269.739 208.06C269.699 208.087 269.646 208.087 269.579 208.06L261.519 204.3C261.426 204.247 261.379 204.173 261.379 204.08V203.12C261.379 203.027 261.426 202.953 261.519 202.9L269.579 199.14L269.659 199.12C269.766 199.12 269.819 199.18 269.819 199.3V200.28C269.819 200.387 269.766 200.46 269.659 200.5L262.919 203.54C262.839 203.58 262.839 203.62 262.919 203.66L269.659 206.7C269.766 206.74 269.819 206.813 269.819 206.92V207.9Z" fill="white"/>
<path d="M259.019 207.9C259.019 207.967 258.993 208.02 258.939 208.06C258.899 208.087 258.846 208.087 258.779 208.06L250.719 204.3C250.626 204.247 250.579 204.173 250.579 204.08V203.12C250.579 203.027 250.626 202.953 250.719 202.9L258.779 199.14L258.859 199.12C258.966 199.12 259.019 199.18 259.019 199.3V200.28C259.019 200.387 258.966 200.46 258.859 200.5L252.119 203.54C252.039 203.58 252.039 203.62 252.119 203.66L258.859 206.7C258.966 206.74 259.019 206.813 259.019 206.92V207.9Z" fill="white"/>
<path d="M248.219 207.9C248.219 207.967 248.193 208.02 248.139 208.06C248.099 208.087 248.046 208.087 247.979 208.06L239.919 204.3C239.826 204.247 239.779 204.173 239.779 204.08V203.12C239.779 203.027 239.826 202.953 239.919 202.9L247.979 199.14L248.059 199.12C248.166 199.12 248.219 199.18 248.219 199.3V200.28C248.219 200.387 248.166 200.46 248.059 200.5L241.319 203.54C241.239 203.58 241.239 203.62 241.319 203.66L248.059 206.7C248.166 206.74 248.219 206.813 248.219 206.92V207.9Z" fill="white"/>
<path d="M237.419 207.9C237.419 207.967 237.393 208.02 237.339 208.06C237.299 208.087 237.246 208.087 237.179 208.06L229.119 204.3C229.026 204.247 228.979 204.173 228.979 204.08V203.12C228.979 203.027 229.026 202.953 229.119 202.9L237.179 199.14L237.259 199.12C237.366 199.12 237.419 199.18 237.419 199.3V200.28C237.419 200.387 237.366 200.46 237.259 200.5L230.519 203.54C230.439 203.58 230.439 203.62 230.519 203.66L237.259 206.7C237.366 206.74 237.419 206.813 237.419 206.92V207.9Z" fill="white"/>
<path d="M226.619 207.9C226.619 207.967 226.593 208.02 226.539 208.06C226.499 208.087 226.446 208.087 226.379 208.06L218.319 204.3C218.226 204.247 218.179 204.173 218.179 204.08V203.12C218.179 203.027 218.226 202.953 218.319 202.9L226.379 199.14L226.459 199.12C226.566 199.12 226.619 199.18 226.619 199.3V200.28C226.619 200.387 226.566 200.46 226.459 200.5L219.719 203.54C219.639 203.58 219.639 203.62 219.719 203.66L226.459 206.7C226.566 206.74 226.619 206.813 226.619 206.92V207.9Z" fill="white"/>
<path d="M215.819 207.9C215.819 207.967 215.793 208.02 215.739 208.06C215.699 208.087 215.646 208.087 215.579 208.06L207.519 204.3C207.426 204.247 207.379 204.173 207.379 204.08V203.12C207.379 203.027 207.426 202.953 207.519 202.9L215.579 199.14L215.659 199.12C215.766 199.12 215.819 199.18 215.819 199.3V200.28C215.819 200.387 215.766 200.46 215.659 200.5L208.919 203.54C208.839 203.58 208.839 203.62 208.919 203.66L215.659 206.7C215.766 206.74 215.819 206.813 215.819 206.92V207.9Z" fill="white"/>
<path d="M205.019 207.9C205.019 207.967 204.993 208.02 204.939 208.06C204.899 208.087 204.846 208.087 204.779 208.06L196.719 204.3C196.626 204.247 196.579 204.173 196.579 204.08V203.12C196.579 203.027 196.626 202.953 196.719 202.9L204.779 199.14L204.859 199.12C204.966 199.12 205.019 199.18 205.019 199.3V200.28C205.019 200.387 204.966 200.46 204.859 200.5L198.119 203.54C198.039 203.58 198.039 203.62 198.119 203.66L204.859 206.7C204.966 206.74 205.019 206.813 205.019 206.92V207.9Z" fill="white"/>
<path d="M194.219 207.9C194.219 207.967 194.193 208.02 194.139 208.06C194.099 208.087 194.046 208.087 193.979 208.06L185.919 204.3C185.826 204.247 185.779 204.173 185.779 204.08V203.12C185.779 203.027 185.826 202.953 185.919 202.9L193.979 199.14L194.059 199.12C194.166 199.12 194.219 199.18 194.219 199.3V200.28C194.219 200.387 194.166 200.46 194.059 200.5L187.319 203.54C187.239 203.58 187.239 203.62 187.319 203.66L194.059 206.7C194.166 206.74 194.219 206.813 194.219 206.92V207.9Z" fill="white"/>
<path d="M183.419 207.9C183.419 207.967 183.393 208.02 183.339 208.06C183.299 208.087 183.246 208.087 183.179 208.06L175.119 204.3C175.026 204.247 174.979 204.173 174.979 204.08V203.12C174.979 203.027 175.026 202.953 175.119 202.9L183.179 199.14L183.259 199.12C183.366 199.12 183.419 199.18 183.419 199.3V200.28C183.419 200.387 183.366 200.46 183.259 200.5L176.519 203.54C176.439 203.58 176.439 203.62 176.519 203.66L183.259 206.7C183.366 206.74 183.419 206.813 183.419 206.92V207.9Z" fill="white"/>
<path d="M172.619 207.9C172.619 207.967 172.593 208.02 172.539 208.06C172.499 208.087 172.446 208.087 172.379 208.06L164.319 204.3C164.226 204.247 164.179 204.173 164.179 204.08V203.12C164.179 203.027 164.226 202.953 164.319 202.9L172.379 199.14L172.459 199.12C172.566 199.12 172.619 199.18 172.619 199.3V200.28C172.619 200.387 172.566 200.46 172.459 200.5L165.719 203.54C165.639 203.58 165.639 203.62 165.719 203.66L172.459 206.7C172.566 206.74 172.619 206.813 172.619 206.92V207.9Z" fill="white"/>
<path d="M161.819 207.9C161.819 207.967 161.793 208.02 161.739 208.06C161.699 208.087 161.646 208.087 161.579 208.06L153.519 204.3C153.426 204.247 153.379 204.173 153.379 204.08V203.12C153.379 203.027 153.426 202.953 153.519 202.9L161.579 199.14L161.659 199.12C161.766 199.12 161.819 199.18 161.819 199.3V200.28C161.819 200.387 161.766 200.46 161.659 200.5L154.919 203.54C154.839 203.58 154.839 203.62 154.919 203.66L161.659 206.7C161.766 206.74 161.819 206.813 161.819 206.92V207.9Z" fill="white"/>
<path d="M151.019 207.9C151.019 207.967 150.993 208.02 150.939 208.06C150.899 208.087 150.846 208.087 150.779 208.06L142.719 204.3C142.626 204.247 142.579 204.173 142.579 204.08V203.12C142.579 203.027 142.626 202.953 142.719 202.9L150.779 199.14L150.859 199.12C150.966 199.12 151.019 199.18 151.019 199.3V200.28C151.019 200.387 150.966 200.46 150.859 200.5L144.119 203.54C144.039 203.58 144.039 203.62 144.119 203.66L150.859 206.7C150.966 206.74 151.019 206.813 151.019 206.92V207.9Z" fill="white"/>
<path d="M140.219 207.9C140.219 207.967 140.193 208.02 140.139 208.06C140.099 208.087 140.046 208.087 139.979 208.06L131.919 204.3C131.826 204.247 131.779 204.173 131.779 204.08V203.12C131.779 203.027 131.826 202.953 131.919 202.9L139.979 199.14L140.059 199.12C140.166 199.12 140.219 199.18 140.219 199.3V200.28C140.219 200.387 140.166 200.46 140.059 200.5L133.319 203.54C133.239 203.58 133.239 203.62 133.319 203.66L140.059 206.7C140.166 206.74 140.219 206.813 140.219 206.92V207.9Z" fill="white"/>
<path d="M129.419 207.9C129.419 207.967 129.393 208.02 129.339 208.06C129.299 208.087 129.246 208.087 129.179 208.06L121.119 204.3C121.026 204.247 120.979 204.173 120.979 204.08V203.12C120.979 203.027 121.026 202.953 121.119 202.9L129.179 199.14L129.259 199.12C129.366 199.12 129.419 199.18 129.419 199.3V200.28C129.419 200.387 129.366 200.46 129.259 200.5L122.519 203.54C122.439 203.58 122.439 203.62 122.519 203.66L129.259 206.7C129.366 206.74 129.419 206.813 129.419 206.92V207.9Z" fill="white"/>
<path d="M118.619 207.9C118.619 207.967 118.593 208.02 118.539 208.06C118.499 208.087 118.446 208.087 118.379 208.06L110.319 204.3C110.226 204.247 110.179 204.173 110.179 204.08V203.12C110.179 203.027 110.226 202.953 110.319 202.9L118.379 199.14L118.459 199.12C118.566 199.12 118.619 199.18 118.619 199.3V200.28C118.619 200.387 118.566 200.46 118.459 200.5L111.719 203.54C111.639 203.58 111.639 203.62 111.719 203.66L118.459 206.7C118.566 206.74 118.619 206.813 118.619 206.92V207.9Z" fill="white"/>
<path d="M107.819 207.9C107.819 207.967 107.793 208.02 107.739 208.06C107.699 208.087 107.646 208.087 107.579 208.06L99.5193 204.3C99.426 204.247 99.3793 204.173 99.3793 204.08V203.12C99.3793 203.027 99.426 202.953 99.5193 202.9L107.579 199.14L107.659 199.12C107.766 199.12 107.819 199.18 107.819 199.3V200.28C107.819 200.387 107.766 200.46 107.659 200.5L100.919 203.54C100.839 203.58 100.839 203.62 100.919 203.66L107.659 206.7C107.766 206.74 107.819 206.813 107.819 206.92V207.9Z" fill="white"/>
<path d="M97.0193 207.9C97.0193 207.967 96.9926 208.02 96.9393 208.06C96.8993 208.087 96.846 208.087 96.7793 208.06L88.7193 204.3C88.626 204.247 88.5793 204.173 88.5793 204.08V203.12C88.5793 203.027 88.626 202.953 88.7193 202.9L96.7793 199.14L96.8593 199.12C96.966 199.12 97.0193 199.18 97.0193 199.3V200.28C97.0193 200.387 96.966 200.46 96.8593 200.5L90.1193 203.54C90.0393 203.58 90.0393 203.62 90.1193 203.66L96.8593 206.7C96.966 206.74 97.0193 206.813 97.0193 206.92V207.9Z" fill="white"/>
<path d="M86.2193 207.9C86.2193 207.967 86.1926 208.02 86.1393 208.06C86.0993 208.087 86.046 208.087 85.9793 208.06L77.9193 204.3C77.826 204.247 77.7793 204.173 77.7793 204.08V203.12C77.7793 203.027 77.826 202.953 77.9193 202.9L85.9793 199.14L86.0593 199.12C86.166 199.12 86.2193 199.18 86.2193 199.3V200.28C86.2193 200.387 86.166 200.46 86.0593 200.5L79.3193 203.54C79.2393 203.58 79.2393 203.62 79.3193 203.66L86.0593 206.7C86.166 206.74 86.2193 206.813 86.2193 206.92V207.9Z" fill="white"/>
<path d="M75.4193 207.9C75.4193 207.967 75.3926 208.02 75.3393 208.06C75.2993 208.087 75.246 208.087 75.1793 208.06L67.1193 204.3C67.026 204.247 66.9793 204.173 66.9793 204.08V203.12C66.9793 203.027 67.026 202.953 67.1193 202.9L75.1793 199.14L75.2593 199.12C75.366 199.12 75.4193 199.18 75.4193 199.3V200.28C75.4193 200.387 75.366 200.46 75.2593 200.5L68.5193 203.54C68.4393 203.58 68.4393 203.62 68.5193 203.66L75.2593 206.7C75.366 206.74 75.4193 206.813 75.4193 206.92V207.9Z" fill="white"/>
<path d="M64.6193 207.9C64.6193 207.967 64.5926 208.02 64.5393 208.06C64.4993 208.087 64.446 208.087 64.3793 208.06L56.3193 204.3C56.226 204.247 56.1793 204.173 56.1793 204.08V203.12C56.1793 203.027 56.226 202.953 56.3193 202.9L64.3793 199.14L64.4593 199.12C64.566 199.12 64.6193 199.18 64.6193 199.3V200.28C64.6193 200.387 64.566 200.46 64.4593 200.5L57.7193 203.54C57.6393 203.58 57.6393 203.62 57.7193 203.66L64.4593 206.7C64.566 206.74 64.6193 206.813 64.6193 206.92V207.9Z" fill="white"/>
<path d="M53.8193 207.9C53.8193 207.967 53.7926 208.02 53.7393 208.06C53.6993 208.087 53.646 208.087 53.5793 208.06L45.5193 204.3C45.426 204.247 45.3793 204.173 45.3793 204.08V203.12C45.3793 203.027 45.426 202.953 45.5193 202.9L53.5793 199.14L53.6593 199.12C53.766 199.12 53.8193 199.18 53.8193 199.3V200.28C53.8193 200.387 53.766 200.46 53.6593 200.5L46.9193 203.54C46.8393 203.58 46.8393 203.62 46.9193 203.66L53.6593 206.7C53.766 206.74 53.8193 206.813 53.8193 206.92V207.9Z" fill="white"/>
<path d="M43.0193 207.9C43.0193 207.967 42.9926 208.02 42.9393 208.06C42.8993 208.087 42.846 208.087 42.7793 208.06L34.7193 204.3C34.626 204.247 34.5793 204.173 34.5793 204.08V203.12C34.5793 203.027 34.626 202.953 34.7193 202.9L42.7793 199.14L42.8593 199.12C42.966 199.12 43.0193 199.18 43.0193 199.3V200.28C43.0193 200.387 42.966 200.46 42.8593 200.5L36.1193 203.54C36.0393 203.58 36.0393 203.62 36.1193 203.66L42.8593 206.7C42.966 206.74 43.0193 206.813 43.0193 206.92V207.9Z" fill="white"/>
<path d="M32.2193 207.9C32.2193 207.967 32.1926 208.02 32.1393 208.06C32.0993 208.087 32.046 208.087 31.9793 208.06L23.9193 204.3C23.826 204.247 23.7793 204.173 23.7793 204.08V203.12C23.7793 203.027 23.826 202.953 23.9193 202.9L31.9793 199.14L32.0593 199.12C32.166 199.12 32.2193 199.18 32.2193 199.3V200.28C32.2193 200.387 32.166 200.46 32.0593 200.5L25.3193 203.54C25.2393 203.58 25.2393 203.62 25.3193 203.66L32.0593 206.7C32.166 206.74 32.2193 206.813 32.2193 206.92V207.9Z" fill="white"/>
<path d="M356.219 189.9C356.219 189.967 356.193 190.02 356.139 190.06C356.099 190.087 356.046 190.087 355.979 190.06L347.919 186.3C347.826 186.247 347.779 186.173 347.779 186.08V185.12C347.779 185.027 347.826 184.953 347.919 184.9L355.979 181.14L356.059 181.12C356.166 181.12 356.219 181.18 356.219 181.3V182.28C356.219 182.387 356.166 182.46 356.059 182.5L349.319 185.54C349.239 185.58 349.239 185.62 349.319 185.66L356.059 188.7C356.166 188.74 356.219 188.813 356.219 188.92V189.9Z" fill="white"/>
<path d="M345.419 189.9C345.419 189.967 345.393 190.02 345.339 190.06C345.299 190.087 345.246 190.087 345.179 190.06L337.119 186.3C337.026 186.247 336.979 186.173 336.979 186.08V185.12C336.979 185.027 337.026 184.953 337.119 184.9L345.179 181.14L345.259 181.12C345.366 181.12 345.419 181.18 345.419 181.3V182.28C345.419 182.387 345.366 182.46 345.259 182.5L338.519 185.54C338.439 185.58 338.439 185.62 338.519 185.66L345.259 188.7C345.366 188.74 345.419 188.813 345.419 188.92V189.9Z" fill="white"/>
<path d="M334.619 189.9C334.619 189.967 334.593 190.02 334.539 190.06C334.499 190.087 334.446 190.087 334.379 190.06L326.319 186.3C326.226 186.247 326.179 186.173 326.179 186.08V185.12C326.179 185.027 326.226 184.953 326.319 184.9L334.379 181.14L334.459 181.12C334.566 181.12 334.619 181.18 334.619 181.3V182.28C334.619 182.387 334.566 182.46 334.459 182.5L327.719 185.54C327.639 185.58 327.639 185.62 327.719 185.66L334.459 188.7C334.566 188.74 334.619 188.813 334.619 188.92V189.9Z" fill="white"/>
<path d="M323.819 189.9C323.819 189.967 323.793 190.02 323.739 190.06C323.699 190.087 323.646 190.087 323.579 190.06L315.519 186.3C315.426 186.247 315.379 186.173 315.379 186.08V185.12C315.379 185.027 315.426 184.953 315.519 184.9L323.579 181.14L323.659 181.12C323.766 181.12 323.819 181.18 323.819 181.3V182.28C323.819 182.387 323.766 182.46 323.659 182.5L316.919 185.54C316.839 185.58 316.839 185.62 316.919 185.66L323.659 188.7C323.766 188.74 323.819 188.813 323.819 188.92V189.9Z" fill="white"/>
<path d="M313.019 189.9C313.019 189.967 312.993 190.02 312.939 190.06C312.899 190.087 312.846 190.087 312.779 190.06L304.719 186.3C304.626 186.247 304.579 186.173 304.579 186.08V185.12C304.579 185.027 304.626 184.953 304.719 184.9L312.779 181.14L312.859 181.12C312.966 181.12 313.019 181.18 313.019 181.3V182.28C313.019 182.387 312.966 182.46 312.859 182.5L306.119 185.54C306.039 185.58 306.039 185.62 306.119 185.66L312.859 188.7C312.966 188.74 313.019 188.813 313.019 188.92V189.9Z" fill="white"/>
<path d="M302.219 189.9C302.219 189.967 302.193 190.02 302.139 190.06C302.099 190.087 302.046 190.087 301.979 190.06L293.919 186.3C293.826 186.247 293.779 186.173 293.779 186.08V185.12C293.779 185.027 293.826 184.953 293.919 184.9L301.979 181.14L302.059 181.12C302.166 181.12 302.219 181.18 302.219 181.3V182.28C302.219 182.387 302.166 182.46 302.059 182.5L295.319 185.54C295.239 185.58 295.239 185.62 295.319 185.66L302.059 188.7C302.166 188.74 302.219 188.813 302.219 188.92V189.9Z" fill="white"/>
<path d="M291.419 189.9C291.419 189.967 291.393 190.02 291.339 190.06C291.299 190.087 291.246 190.087 291.179 190.06L283.119 186.3C283.026 186.247 282.979 186.173 282.979 186.08V185.12C282.979 185.027 283.026 184.953 283.119 184.9L291.179 181.14L291.259 181.12C291.366 181.12 291.419 181.18 291.419 181.3V182.28C291.419 182.387 291.366 182.46 291.259 182.5L284.519 185.54C284.439 185.58 284.439 185.62 284.519 185.66L291.259 188.7C291.366 188.74 291.419 188.813 291.419 188.92V189.9Z" fill="white"/>
<path d="M280.619 189.9C280.619 189.967 280.593 190.02 280.539 190.06C280.499 190.087 280.446 190.087 280.379 190.06L272.319 186.3C272.226 186.247 272.179 186.173 272.179 186.08V185.12C272.179 185.027 272.226 184.953 272.319 184.9L280.379 181.14L280.459 181.12C280.566 181.12 280.619 181.18 280.619 181.3V182.28C280.619 182.387 280.566 182.46 280.459 182.5L273.719 185.54C273.639 185.58 273.639 185.62 273.719 185.66L280.459 188.7C280.566 188.74 280.619 188.813 280.619 188.92V189.9Z" fill="white"/>
<path d="M269.819 189.9C269.819 189.967 269.793 190.02 269.739 190.06C269.699 190.087 269.646 190.087 269.579 190.06L261.519 186.3C261.426 186.247 261.379 186.173 261.379 186.08V185.12C261.379 185.027 261.426 184.953 261.519 184.9L269.579 181.14L269.659 181.12C269.766 181.12 269.819 181.18 269.819 181.3V182.28C269.819 182.387 269.766 182.46 269.659 182.5L262.919 185.54C262.839 185.58 262.839 185.62 262.919 185.66L269.659 188.7C269.766 188.74 269.819 188.813 269.819 188.92V189.9Z" fill="white"/>
<path d="M259.019 189.9C259.019 189.967 258.993 190.02 258.939 190.06C258.899 190.087 258.846 190.087 258.779 190.06L250.719 186.3C250.626 186.247 250.579 186.173 250.579 186.08V185.12C250.579 185.027 250.626 184.953 250.719 184.9L258.779 181.14L258.859 181.12C258.966 181.12 259.019 181.18 259.019 181.3V182.28C259.019 182.387 258.966 182.46 258.859 182.5L252.119 185.54C252.039 185.58 252.039 185.62 252.119 185.66L258.859 188.7C258.966 188.74 259.019 188.813 259.019 188.92V189.9Z" fill="white"/>
<path d="M248.219 189.9C248.219 189.967 248.193 190.02 248.139 190.06C248.099 190.087 248.046 190.087 247.979 190.06L239.919 186.3C239.826 186.247 239.779 186.173 239.779 186.08V185.12C239.779 185.027 239.826 184.953 239.919 184.9L247.979 181.14L248.059 181.12C248.166 181.12 248.219 181.18 248.219 181.3V182.28C248.219 182.387 248.166 182.46 248.059 182.5L241.319 185.54C241.239 185.58 241.239 185.62 241.319 185.66L248.059 188.7C248.166 188.74 248.219 188.813 248.219 188.92V189.9Z" fill="white"/>
<path d="M237.419 189.9C237.419 189.967 237.393 190.02 237.339 190.06C237.299 190.087 237.246 190.087 237.179 190.06L229.119 186.3C229.026 186.247 228.979 186.173 228.979 186.08V185.12C228.979 185.027 229.026 184.953 229.119 184.9L237.179 181.14L237.259 181.12C237.366 181.12 237.419 181.18 237.419 181.3V182.28C237.419 182.387 237.366 182.46 237.259 182.5L230.519 185.54C230.439 185.58 230.439 185.62 230.519 185.66L237.259 188.7C237.366 188.74 237.419 188.813 237.419 188.92V189.9Z" fill="white"/>
<path d="M226.619 189.9C226.619 189.967 226.593 190.02 226.539 190.06C226.499 190.087 226.446 190.087 226.379 190.06L218.319 186.3C218.226 186.247 218.179 186.173 218.179 186.08V185.12C218.179 185.027 218.226 184.953 218.319 184.9L226.379 181.14L226.459 181.12C226.566 181.12 226.619 181.18 226.619 181.3V182.28C226.619 182.387 226.566 182.46 226.459 182.5L219.719 185.54C219.639 185.58 219.639 185.62 219.719 185.66L226.459 188.7C226.566 188.74 226.619 188.813 226.619 188.92V189.9Z" fill="white"/>
<path d="M215.819 189.9C215.819 189.967 215.793 190.02 215.739 190.06C215.699 190.087 215.646 190.087 215.579 190.06L207.519 186.3C207.426 186.247 207.379 186.173 207.379 186.08V185.12C207.379 185.027 207.426 184.953 207.519 184.9L215.579 181.14L215.659 181.12C215.766 181.12 215.819 181.18 215.819 181.3V182.28C215.819 182.387 215.766 182.46 215.659 182.5L208.919 185.54C208.839 185.58 208.839 185.62 208.919 185.66L215.659 188.7C215.766 188.74 215.819 188.813 215.819 188.92V189.9Z" fill="white"/>
<path d="M205.019 189.9C205.019 189.967 204.993 190.02 204.939 190.06C204.899 190.087 204.846 190.087 204.779 190.06L196.719 186.3C196.626 186.247 196.579 186.173 196.579 186.08V185.12C196.579 185.027 196.626 184.953 196.719 184.9L204.779 181.14L204.859 181.12C204.966 181.12 205.019 181.18 205.019 181.3V182.28C205.019 182.387 204.966 182.46 204.859 182.5L198.119 185.54C198.039 185.58 198.039 185.62 198.119 185.66L204.859 188.7C204.966 188.74 205.019 188.813 205.019 188.92V189.9Z" fill="white"/>
<path d="M194.219 189.9C194.219 189.967 194.193 190.02 194.139 190.06C194.099 190.087 194.046 190.087 193.979 190.06L185.919 186.3C185.826 186.247 185.779 186.173 185.779 186.08V185.12C185.779 185.027 185.826 184.953 185.919 184.9L193.979 181.14L194.059 181.12C194.166 181.12 194.219 181.18 194.219 181.3V182.28C194.219 182.387 194.166 182.46 194.059 182.5L187.319 185.54C187.239 185.58 187.239 185.62 187.319 185.66L194.059 188.7C194.166 188.74 194.219 188.813 194.219 188.92V189.9Z" fill="white"/>
<path d="M183.419 189.9C183.419 189.967 183.393 190.02 183.339 190.06C183.299 190.087 183.246 190.087 183.179 190.06L175.119 186.3C175.026 186.247 174.979 186.173 174.979 186.08V185.12C174.979 185.027 175.026 184.953 175.119 184.9L183.179 181.14L183.259 181.12C183.366 181.12 183.419 181.18 183.419 181.3V182.28C183.419 182.387 183.366 182.46 183.259 182.5L176.519 185.54C176.439 185.58 176.439 185.62 176.519 185.66L183.259 188.7C183.366 188.74 183.419 188.813 183.419 188.92V189.9Z" fill="white"/>
<path d="M172.619 189.9C172.619 189.967 172.593 190.02 172.539 190.06C172.499 190.087 172.446 190.087 172.379 190.06L164.319 186.3C164.226 186.247 164.179 186.173 164.179 186.08V185.12C164.179 185.027 164.226 184.953 164.319 184.9L172.379 181.14L172.459 181.12C172.566 181.12 172.619 181.18 172.619 181.3V182.28C172.619 182.387 172.566 182.46 172.459 182.5L165.719 185.54C165.639 185.58 165.639 185.62 165.719 185.66L172.459 188.7C172.566 188.74 172.619 188.813 172.619 188.92V189.9Z" fill="white"/>
<path d="M161.819 189.9C161.819 189.967 161.793 190.02 161.739 190.06C161.699 190.087 161.646 190.087 161.579 190.06L153.519 186.3C153.426 186.247 153.379 186.173 153.379 186.08V185.12C153.379 185.027 153.426 184.953 153.519 184.9L161.579 181.14L161.659 181.12C161.766 181.12 161.819 181.18 161.819 181.3V182.28C161.819 182.387 161.766 182.46 161.659 182.5L154.919 185.54C154.839 185.58 154.839 185.62 154.919 185.66L161.659 188.7C161.766 188.74 161.819 188.813 161.819 188.92V189.9Z" fill="white"/>
<path d="M151.019 189.9C151.019 189.967 150.993 190.02 150.939 190.06C150.899 190.087 150.846 190.087 150.779 190.06L142.719 186.3C142.626 186.247 142.579 186.173 142.579 186.08V185.12C142.579 185.027 142.626 184.953 142.719 184.9L150.779 181.14L150.859 181.12C150.966 181.12 151.019 181.18 151.019 181.3V182.28C151.019 182.387 150.966 182.46 150.859 182.5L144.119 185.54C144.039 185.58 144.039 185.62 144.119 185.66L150.859 188.7C150.966 188.74 151.019 188.813 151.019 188.92V189.9Z" fill="white"/>
<path d="M140.219 189.9C140.219 189.967 140.193 190.02 140.139 190.06C140.099 190.087 140.046 190.087 139.979 190.06L131.919 186.3C131.826 186.247 131.779 186.173 131.779 186.08V185.12C131.779 185.027 131.826 184.953 131.919 184.9L139.979 181.14L140.059 181.12C140.166 181.12 140.219 181.18 140.219 181.3V182.28C140.219 182.387 140.166 182.46 140.059 182.5L133.319 185.54C133.239 185.58 133.239 185.62 133.319 185.66L140.059 188.7C140.166 188.74 140.219 188.813 140.219 188.92V189.9Z" fill="white"/>
<path d="M129.419 189.9C129.419 189.967 129.393 190.02 129.339 190.06C129.299 190.087 129.246 190.087 129.179 190.06L121.119 186.3C121.026 186.247 120.979 186.173 120.979 186.08V185.12C120.979 185.027 121.026 184.953 121.119 184.9L129.179 181.14L129.259 181.12C129.366 181.12 129.419 181.18 129.419 181.3V182.28C129.419 182.387 129.366 182.46 129.259 182.5L122.519 185.54C122.439 185.58 122.439 185.62 122.519 185.66L129.259 188.7C129.366 188.74 129.419 188.813 129.419 188.92V189.9Z" fill="white"/>
<path d="M118.619 189.9C118.619 189.967 118.593 190.02 118.539 190.06C118.499 190.087 118.446 190.087 118.379 190.06L110.319 186.3C110.226 186.247 110.179 186.173 110.179 186.08V185.12C110.179 185.027 110.226 184.953 110.319 184.9L118.379 181.14L118.459 181.12C118.566 181.12 118.619 181.18 118.619 181.3V182.28C118.619 182.387 118.566 182.46 118.459 182.5L111.719 185.54C111.639 185.58 111.639 185.62 111.719 185.66L118.459 188.7C118.566 188.74 118.619 188.813 118.619 188.92V189.9Z" fill="white"/>
<path d="M107.819 189.9C107.819 189.967 107.793 190.02 107.739 190.06C107.699 190.087 107.646 190.087 107.579 190.06L99.5193 186.3C99.426 186.247 99.3793 186.173 99.3793 186.08V185.12C99.3793 185.027 99.426 184.953 99.5193 184.9L107.579 181.14L107.659 181.12C107.766 181.12 107.819 181.18 107.819 181.3V182.28C107.819 182.387 107.766 182.46 107.659 182.5L100.919 185.54C100.839 185.58 100.839 185.62 100.919 185.66L107.659 188.7C107.766 188.74 107.819 188.813 107.819 188.92V189.9Z" fill="white"/>
<path d="M97.0193 189.9C97.0193 189.967 96.9926 190.02 96.9393 190.06C96.8993 190.087 96.846 190.087 96.7793 190.06L88.7193 186.3C88.626 186.247 88.5793 186.173 88.5793 186.08V185.12C88.5793 185.027 88.626 184.953 88.7193 184.9L96.7793 181.14L96.8593 181.12C96.966 181.12 97.0193 181.18 97.0193 181.3V182.28C97.0193 182.387 96.966 182.46 96.8593 182.5L90.1193 185.54C90.0393 185.58 90.0393 185.62 90.1193 185.66L96.8593 188.7C96.966 188.74 97.0193 188.813 97.0193 188.92V189.9Z" fill="white"/>
<path d="M86.2193 189.9C86.2193 189.967 86.1926 190.02 86.1393 190.06C86.0993 190.087 86.046 190.087 85.9793 190.06L77.9193 186.3C77.826 186.247 77.7793 186.173 77.7793 186.08V185.12C77.7793 185.027 77.826 184.953 77.9193 184.9L85.9793 181.14L86.0593 181.12C86.166 181.12 86.2193 181.18 86.2193 181.3V182.28C86.2193 182.387 86.166 182.46 86.0593 182.5L79.3193 185.54C79.2393 185.58 79.2393 185.62 79.3193 185.66L86.0593 188.7C86.166 188.74 86.2193 188.813 86.2193 188.92V189.9Z" fill="white"/>
<path d="M75.4193 189.9C75.4193 189.967 75.3926 190.02 75.3393 190.06C75.2993 190.087 75.246 190.087 75.1793 190.06L67.1193 186.3C67.026 186.247 66.9793 186.173 66.9793 186.08V185.12C66.9793 185.027 67.026 184.953 67.1193 184.9L75.1793 181.14L75.2593 181.12C75.366 181.12 75.4193 181.18 75.4193 181.3V182.28C75.4193 182.387 75.366 182.46 75.2593 182.5L68.5193 185.54C68.4393 185.58 68.4393 185.62 68.5193 185.66L75.2593 188.7C75.366 188.74 75.4193 188.813 75.4193 188.92V189.9Z" fill="white"/>
<path d="M64.6193 189.9C64.6193 189.967 64.5926 190.02 64.5393 190.06C64.4993 190.087 64.446 190.087 64.3793 190.06L56.3193 186.3C56.226 186.247 56.1793 186.173 56.1793 186.08V185.12C56.1793 185.027 56.226 184.953 56.3193 184.9L64.3793 181.14L64.4593 181.12C64.566 181.12 64.6193 181.18 64.6193 181.3V182.28C64.6193 182.387 64.566 182.46 64.4593 182.5L57.7193 185.54C57.6393 185.58 57.6393 185.62 57.7193 185.66L64.4593 188.7C64.566 188.74 64.6193 188.813 64.6193 188.92V189.9Z" fill="white"/>
<path d="M53.8193 189.9C53.8193 189.967 53.7926 190.02 53.7393 190.06C53.6993 190.087 53.646 190.087 53.5793 190.06L45.5193 186.3C45.426 186.247 45.3793 186.173 45.3793 186.08V185.12C45.3793 185.027 45.426 184.953 45.5193 184.9L53.5793 181.14L53.6593 181.12C53.766 181.12 53.8193 181.18 53.8193 181.3V182.28C53.8193 182.387 53.766 182.46 53.6593 182.5L46.9193 185.54C46.8393 185.58 46.8393 185.62 46.9193 185.66L53.6593 188.7C53.766 188.74 53.8193 188.813 53.8193 188.92V189.9Z" fill="white"/>
<path d="M43.0193 189.9C43.0193 189.967 42.9926 190.02 42.9393 190.06C42.8993 190.087 42.846 190.087 42.7793 190.06L34.7193 186.3C34.626 186.247 34.5793 186.173 34.5793 186.08V185.12C34.5793 185.027 34.626 184.953 34.7193 184.9L42.7793 181.14L42.8593 181.12C42.966 181.12 43.0193 181.18 43.0193 181.3V182.28C43.0193 182.387 42.966 182.46 42.8593 182.5L36.1193 185.54C36.0393 185.58 36.0393 185.62 36.1193 185.66L42.8593 188.7C42.966 188.74 43.0193 188.813 43.0193 188.92V189.9Z" fill="white"/>
<path d="M32.2193 189.9C32.2193 189.967 32.1926 190.02 32.1393 190.06C32.0993 190.087 32.046 190.087 31.9793 190.06L23.9193 186.3C23.826 186.247 23.7793 186.173 23.7793 186.08V185.12C23.7793 185.027 23.826 184.953 23.9193 184.9L31.9793 181.14L32.0593 181.12C32.166 181.12 32.2193 181.18 32.2193 181.3V182.28C32.2193 182.387 32.166 182.46 32.0593 182.5L25.3193 185.54C25.2393 185.58 25.2393 185.62 25.3193 185.66L32.0593 188.7C32.166 188.74 32.2193 188.813 32.2193 188.92V189.9Z" fill="white"/>
<path d="M356.219 171.9C356.219 171.967 356.193 172.02 356.139 172.06C356.099 172.087 356.046 172.087 355.979 172.06L347.919 168.3C347.826 168.247 347.779 168.173 347.779 168.08V167.12C347.779 167.027 347.826 166.953 347.919 166.9L355.979 163.14L356.059 163.12C356.166 163.12 356.219 163.18 356.219 163.3V164.28C356.219 164.387 356.166 164.46 356.059 164.5L349.319 167.54C349.239 167.58 349.239 167.62 349.319 167.66L356.059 170.7C356.166 170.74 356.219 170.813 356.219 170.92V171.9Z" fill="white"/>
<path d="M345.419 171.9C345.419 171.967 345.393 172.02 345.339 172.06C345.299 172.087 345.246 172.087 345.179 172.06L337.119 168.3C337.026 168.247 336.979 168.173 336.979 168.08V167.12C336.979 167.027 337.026 166.953 337.119 166.9L345.179 163.14L345.259 163.12C345.366 163.12 345.419 163.18 345.419 163.3V164.28C345.419 164.387 345.366 164.46 345.259 164.5L338.519 167.54C338.439 167.58 338.439 167.62 338.519 167.66L345.259 170.7C345.366 170.74 345.419 170.813 345.419 170.92V171.9Z" fill="white"/>
<path d="M334.619 171.9C334.619 171.967 334.593 172.02 334.539 172.06C334.499 172.087 334.446 172.087 334.379 172.06L326.319 168.3C326.226 168.247 326.179 168.173 326.179 168.08V167.12C326.179 167.027 326.226 166.953 326.319 166.9L334.379 163.14L334.459 163.12C334.566 163.12 334.619 163.18 334.619 163.3V164.28C334.619 164.387 334.566 164.46 334.459 164.5L327.719 167.54C327.639 167.58 327.639 167.62 327.719 167.66L334.459 170.7C334.566 170.74 334.619 170.813 334.619 170.92V171.9Z" fill="white"/>
<path d="M323.819 171.9C323.819 171.967 323.793 172.02 323.739 172.06C323.699 172.087 323.646 172.087 323.579 172.06L315.519 168.3C315.426 168.247 315.379 168.173 315.379 168.08V167.12C315.379 167.027 315.426 166.953 315.519 166.9L323.579 163.14L323.659 163.12C323.766 163.12 323.819 163.18 323.819 163.3V164.28C323.819 164.387 323.766 164.46 323.659 164.5L316.919 167.54C316.839 167.58 316.839 167.62 316.919 167.66L323.659 170.7C323.766 170.74 323.819 170.813 323.819 170.92V171.9Z" fill="white"/>
<path d="M313.019 171.9C313.019 171.967 312.993 172.02 312.939 172.06C312.899 172.087 312.846 172.087 312.779 172.06L304.719 168.3C304.626 168.247 304.579 168.173 304.579 168.08V167.12C304.579 167.027 304.626 166.953 304.719 166.9L312.779 163.14L312.859 163.12C312.966 163.12 313.019 163.18 313.019 163.3V164.28C313.019 164.387 312.966 164.46 312.859 164.5L306.119 167.54C306.039 167.58 306.039 167.62 306.119 167.66L312.859 170.7C312.966 170.74 313.019 170.813 313.019 170.92V171.9Z" fill="white"/>
<path d="M302.219 171.9C302.219 171.967 302.193 172.02 302.139 172.06C302.099 172.087 302.046 172.087 301.979 172.06L293.919 168.3C293.826 168.247 293.779 168.173 293.779 168.08V167.12C293.779 167.027 293.826 166.953 293.919 166.9L301.979 163.14L302.059 163.12C302.166 163.12 302.219 163.18 302.219 163.3V164.28C302.219 164.387 302.166 164.46 302.059 164.5L295.319 167.54C295.239 167.58 295.239 167.62 295.319 167.66L302.059 170.7C302.166 170.74 302.219 170.813 302.219 170.92V171.9Z" fill="white"/>
<path d="M291.419 171.9C291.419 171.967 291.393 172.02 291.339 172.06C291.299 172.087 291.246 172.087 291.179 172.06L283.119 168.3C283.026 168.247 282.979 168.173 282.979 168.08V167.12C282.979 167.027 283.026 166.953 283.119 166.9L291.179 163.14L291.259 163.12C291.366 163.12 291.419 163.18 291.419 163.3V164.28C291.419 164.387 291.366 164.46 291.259 164.5L284.519 167.54C284.439 167.58 284.439 167.62 284.519 167.66L291.259 170.7C291.366 170.74 291.419 170.813 291.419 170.92V171.9Z" fill="white"/>
<path d="M280.619 171.9C280.619 171.967 280.593 172.02 280.539 172.06C280.499 172.087 280.446 172.087 280.379 172.06L272.319 168.3C272.226 168.247 272.179 168.173 272.179 168.08V167.12C272.179 167.027 272.226 166.953 272.319 166.9L280.379 163.14L280.459 163.12C280.566 163.12 280.619 163.18 280.619 163.3V164.28C280.619 164.387 280.566 164.46 280.459 164.5L273.719 167.54C273.639 167.58 273.639 167.62 273.719 167.66L280.459 170.7C280.566 170.74 280.619 170.813 280.619 170.92V171.9Z" fill="white"/>
<path d="M269.819 171.9C269.819 171.967 269.793 172.02 269.739 172.06C269.699 172.087 269.646 172.087 269.579 172.06L261.519 168.3C261.426 168.247 261.379 168.173 261.379 168.08V167.12C261.379 167.027 261.426 166.953 261.519 166.9L269.579 163.14L269.659 163.12C269.766 163.12 269.819 163.18 269.819 163.3V164.28C269.819 164.387 269.766 164.46 269.659 164.5L262.919 167.54C262.839 167.58 262.839 167.62 262.919 167.66L269.659 170.7C269.766 170.74 269.819 170.813 269.819 170.92V171.9Z" fill="white"/>
<path d="M259.019 171.9C259.019 171.967 258.993 172.02 258.939 172.06C258.899 172.087 258.846 172.087 258.779 172.06L250.719 168.3C250.626 168.247 250.579 168.173 250.579 168.08V167.12C250.579 167.027 250.626 166.953 250.719 166.9L258.779 163.14L258.859 163.12C258.966 163.12 259.019 163.18 259.019 163.3V164.28C259.019 164.387 258.966 164.46 258.859 164.5L252.119 167.54C252.039 167.58 252.039 167.62 252.119 167.66L258.859 170.7C258.966 170.74 259.019 170.813 259.019 170.92V171.9Z" fill="white"/>
<path d="M248.219 171.9C248.219 171.967 248.193 172.02 248.139 172.06C248.099 172.087 248.046 172.087 247.979 172.06L239.919 168.3C239.826 168.247 239.779 168.173 239.779 168.08V167.12C239.779 167.027 239.826 166.953 239.919 166.9L247.979 163.14L248.059 163.12C248.166 163.12 248.219 163.18 248.219 163.3V164.28C248.219 164.387 248.166 164.46 248.059 164.5L241.319 167.54C241.239 167.58 241.239 167.62 241.319 167.66L248.059 170.7C248.166 170.74 248.219 170.813 248.219 170.92V171.9Z" fill="white"/>
<path d="M237.419 171.9C237.419 171.967 237.393 172.02 237.339 172.06C237.299 172.087 237.246 172.087 237.179 172.06L229.119 168.3C229.026 168.247 228.979 168.173 228.979 168.08V167.12C228.979 167.027 229.026 166.953 229.119 166.9L237.179 163.14L237.259 163.12C237.366 163.12 237.419 163.18 237.419 163.3V164.28C237.419 164.387 237.366 164.46 237.259 164.5L230.519 167.54C230.439 167.58 230.439 167.62 230.519 167.66L237.259 170.7C237.366 170.74 237.419 170.813 237.419 170.92V171.9Z" fill="white"/>
<path d="M226.619 171.9C226.619 171.967 226.593 172.02 226.539 172.06C226.499 172.087 226.446 172.087 226.379 172.06L218.319 168.3C218.226 168.247 218.179 168.173 218.179 168.08V167.12C218.179 167.027 218.226 166.953 218.319 166.9L226.379 163.14L226.459 163.12C226.566 163.12 226.619 163.18 226.619 163.3V164.28C226.619 164.387 226.566 164.46 226.459 164.5L219.719 167.54C219.639 167.58 219.639 167.62 219.719 167.66L226.459 170.7C226.566 170.74 226.619 170.813 226.619 170.92V171.9Z" fill="white"/>
<path d="M215.819 171.9C215.819 171.967 215.793 172.02 215.739 172.06C215.699 172.087 215.646 172.087 215.579 172.06L207.519 168.3C207.426 168.247 207.379 168.173 207.379 168.08V167.12C207.379 167.027 207.426 166.953 207.519 166.9L215.579 163.14L215.659 163.12C215.766 163.12 215.819 163.18 215.819 163.3V164.28C215.819 164.387 215.766 164.46 215.659 164.5L208.919 167.54C208.839 167.58 208.839 167.62 208.919 167.66L215.659 170.7C215.766 170.74 215.819 170.813 215.819 170.92V171.9Z" fill="white"/>
<path d="M205.019 171.9C205.019 171.967 204.993 172.02 204.939 172.06C204.899 172.087 204.846 172.087 204.779 172.06L196.719 168.3C196.626 168.247 196.579 168.173 196.579 168.08V167.12C196.579 167.027 196.626 166.953 196.719 166.9L204.779 163.14L204.859 163.12C204.966 163.12 205.019 163.18 205.019 163.3V164.28C205.019 164.387 204.966 164.46 204.859 164.5L198.119 167.54C198.039 167.58 198.039 167.62 198.119 167.66L204.859 170.7C204.966 170.74 205.019 170.813 205.019 170.92V171.9Z" fill="white"/>
<path d="M194.219 171.9C194.219 171.967 194.193 172.02 194.139 172.06C194.099 172.087 194.046 172.087 193.979 172.06L185.919 168.3C185.826 168.247 185.779 168.173 185.779 168.08V167.12C185.779 167.027 185.826 166.953 185.919 166.9L193.979 163.14L194.059 163.12C194.166 163.12 194.219 163.18 194.219 163.3V164.28C194.219 164.387 194.166 164.46 194.059 164.5L187.319 167.54C187.239 167.58 187.239 167.62 187.319 167.66L194.059 170.7C194.166 170.74 194.219 170.813 194.219 170.92V171.9Z" fill="white"/>
<path d="M183.419 171.9C183.419 171.967 183.393 172.02 183.339 172.06C183.299 172.087 183.246 172.087 183.179 172.06L175.119 168.3C175.026 168.247 174.979 168.173 174.979 168.08V167.12C174.979 167.027 175.026 166.953 175.119 166.9L183.179 163.14L183.259 163.12C183.366 163.12 183.419 163.18 183.419 163.3V164.28C183.419 164.387 183.366 164.46 183.259 164.5L176.519 167.54C176.439 167.58 176.439 167.62 176.519 167.66L183.259 170.7C183.366 170.74 183.419 170.813 183.419 170.92V171.9Z" fill="white"/>
<path d="M172.619 171.9C172.619 171.967 172.593 172.02 172.539 172.06C172.499 172.087 172.446 172.087 172.379 172.06L164.319 168.3C164.226 168.247 164.179 168.173 164.179 168.08V167.12C164.179 167.027 164.226 166.953 164.319 166.9L172.379 163.14L172.459 163.12C172.566 163.12 172.619 163.18 172.619 163.3V164.28C172.619 164.387 172.566 164.46 172.459 164.5L165.719 167.54C165.639 167.58 165.639 167.62 165.719 167.66L172.459 170.7C172.566 170.74 172.619 170.813 172.619 170.92V171.9Z" fill="white"/>
<path d="M161.819 171.9C161.819 171.967 161.793 172.02 161.739 172.06C161.699 172.087 161.646 172.087 161.579 172.06L153.519 168.3C153.426 168.247 153.379 168.173 153.379 168.08V167.12C153.379 167.027 153.426 166.953 153.519 166.9L161.579 163.14L161.659 163.12C161.766 163.12 161.819 163.18 161.819 163.3V164.28C161.819 164.387 161.766 164.46 161.659 164.5L154.919 167.54C154.839 167.58 154.839 167.62 154.919 167.66L161.659 170.7C161.766 170.74 161.819 170.813 161.819 170.92V171.9Z" fill="white"/>
<path d="M151.019 171.9C151.019 171.967 150.993 172.02 150.939 172.06C150.899 172.087 150.846 172.087 150.779 172.06L142.719 168.3C142.626 168.247 142.579 168.173 142.579 168.08V167.12C142.579 167.027 142.626 166.953 142.719 166.9L150.779 163.14L150.859 163.12C150.966 163.12 151.019 163.18 151.019 163.3V164.28C151.019 164.387 150.966 164.46 150.859 164.5L144.119 167.54C144.039 167.58 144.039 167.62 144.119 167.66L150.859 170.7C150.966 170.74 151.019 170.813 151.019 170.92V171.9Z" fill="white"/>
<path d="M140.219 171.9C140.219 171.967 140.193 172.02 140.139 172.06C140.099 172.087 140.046 172.087 139.979 172.06L131.919 168.3C131.826 168.247 131.779 168.173 131.779 168.08V167.12C131.779 167.027 131.826 166.953 131.919 166.9L139.979 163.14L140.059 163.12C140.166 163.12 140.219 163.18 140.219 163.3V164.28C140.219 164.387 140.166 164.46 140.059 164.5L133.319 167.54C133.239 167.58 133.239 167.62 133.319 167.66L140.059 170.7C140.166 170.74 140.219 170.813 140.219 170.92V171.9Z" fill="white"/>
<path d="M129.419 171.9C129.419 171.967 129.393 172.02 129.339 172.06C129.299 172.087 129.246 172.087 129.179 172.06L121.119 168.3C121.026 168.247 120.979 168.173 120.979 168.08V167.12C120.979 167.027 121.026 166.953 121.119 166.9L129.179 163.14L129.259 163.12C129.366 163.12 129.419 163.18 129.419 163.3V164.28C129.419 164.387 129.366 164.46 129.259 164.5L122.519 167.54C122.439 167.58 122.439 167.62 122.519 167.66L129.259 170.7C129.366 170.74 129.419 170.813 129.419 170.92V171.9Z" fill="white"/>
<path d="M118.619 171.9C118.619 171.967 118.593 172.02 118.539 172.06C118.499 172.087 118.446 172.087 118.379 172.06L110.319 168.3C110.226 168.247 110.179 168.173 110.179 168.08V167.12C110.179 167.027 110.226 166.953 110.319 166.9L118.379 163.14L118.459 163.12C118.566 163.12 118.619 163.18 118.619 163.3V164.28C118.619 164.387 118.566 164.46 118.459 164.5L111.719 167.54C111.639 167.58 111.639 167.62 111.719 167.66L118.459 170.7C118.566 170.74 118.619 170.813 118.619 170.92V171.9Z" fill="white"/>
<path d="M107.819 171.9C107.819 171.967 107.793 172.02 107.739 172.06C107.699 172.087 107.646 172.087 107.579 172.06L99.5193 168.3C99.426 168.247 99.3793 168.173 99.3793 168.08V167.12C99.3793 167.027 99.426 166.953 99.5193 166.9L107.579 163.14L107.659 163.12C107.766 163.12 107.819 163.18 107.819 163.3V164.28C107.819 164.387 107.766 164.46 107.659 164.5L100.919 167.54C100.839 167.58 100.839 167.62 100.919 167.66L107.659 170.7C107.766 170.74 107.819 170.813 107.819 170.92V171.9Z" fill="white"/>
<path d="M97.0193 171.9C97.0193 171.967 96.9926 172.02 96.9393 172.06C96.8993 172.087 96.846 172.087 96.7793 172.06L88.7193 168.3C88.626 168.247 88.5793 168.173 88.5793 168.08V167.12C88.5793 167.027 88.626 166.953 88.7193 166.9L96.7793 163.14L96.8593 163.12C96.966 163.12 97.0193 163.18 97.0193 163.3V164.28C97.0193 164.387 96.966 164.46 96.8593 164.5L90.1193 167.54C90.0393 167.58 90.0393 167.62 90.1193 167.66L96.8593 170.7C96.966 170.74 97.0193 170.813 97.0193 170.92V171.9Z" fill="white"/>
<path d="M86.2193 171.9C86.2193 171.967 86.1926 172.02 86.1393 172.06C86.0993 172.087 86.046 172.087 85.9793 172.06L77.9193 168.3C77.826 168.247 77.7793 168.173 77.7793 168.08V167.12C77.7793 167.027 77.826 166.953 77.9193 166.9L85.9793 163.14L86.0593 163.12C86.166 163.12 86.2193 163.18 86.2193 163.3V164.28C86.2193 164.387 86.166 164.46 86.0593 164.5L79.3193 167.54C79.2393 167.58 79.2393 167.62 79.3193 167.66L86.0593 170.7C86.166 170.74 86.2193 170.813 86.2193 170.92V171.9Z" fill="white"/>
<path d="M75.4193 171.9C75.4193 171.967 75.3926 172.02 75.3393 172.06C75.2993 172.087 75.246 172.087 75.1793 172.06L67.1193 168.3C67.026 168.247 66.9793 168.173 66.9793 168.08V167.12C66.9793 167.027 67.026 166.953 67.1193 166.9L75.1793 163.14L75.2593 163.12C75.366 163.12 75.4193 163.18 75.4193 163.3V164.28C75.4193 164.387 75.366 164.46 75.2593 164.5L68.5193 167.54C68.4393 167.58 68.4393 167.62 68.5193 167.66L75.2593 170.7C75.366 170.74 75.4193 170.813 75.4193 170.92V171.9Z" fill="white"/>
<path d="M64.6193 171.9C64.6193 171.967 64.5926 172.02 64.5393 172.06C64.4993 172.087 64.446 172.087 64.3793 172.06L56.3193 168.3C56.226 168.247 56.1793 168.173 56.1793 168.08V167.12C56.1793 167.027 56.226 166.953 56.3193 166.9L64.3793 163.14L64.4593 163.12C64.566 163.12 64.6193 163.18 64.6193 163.3V164.28C64.6193 164.387 64.566 164.46 64.4593 164.5L57.7193 167.54C57.6393 167.58 57.6393 167.62 57.7193 167.66L64.4593 170.7C64.566 170.74 64.6193 170.813 64.6193 170.92V171.9Z" fill="white"/>
<path d="M53.8193 171.9C53.8193 171.967 53.7926 172.02 53.7393 172.06C53.6993 172.087 53.646 172.087 53.5793 172.06L45.5193 168.3C45.426 168.247 45.3793 168.173 45.3793 168.08V167.12C45.3793 167.027 45.426 166.953 45.5193 166.9L53.5793 163.14L53.6593 163.12C53.766 163.12 53.8193 163.18 53.8193 163.3V164.28C53.8193 164.387 53.766 164.46 53.6593 164.5L46.9193 167.54C46.8393 167.58 46.8393 167.62 46.9193 167.66L53.6593 170.7C53.766 170.74 53.8193 170.813 53.8193 170.92V171.9Z" fill="white"/>
<path d="M43.0193 171.9C43.0193 171.967 42.9926 172.02 42.9393 172.06C42.8993 172.087 42.846 172.087 42.7793 172.06L34.7193 168.3C34.626 168.247 34.5793 168.173 34.5793 168.08V167.12C34.5793 167.027 34.626 166.953 34.7193 166.9L42.7793 163.14L42.8593 163.12C42.966 163.12 43.0193 163.18 43.0193 163.3V164.28C43.0193 164.387 42.966 164.46 42.8593 164.5L36.1193 167.54C36.0393 167.58 36.0393 167.62 36.1193 167.66L42.8593 170.7C42.966 170.74 43.0193 170.813 43.0193 170.92V171.9Z" fill="white"/>
<path d="M32.2193 171.9C32.2193 171.967 32.1926 172.02 32.1393 172.06C32.0993 172.087 32.046 172.087 31.9793 172.06L23.9193 168.3C23.826 168.247 23.7793 168.173 23.7793 168.08V167.12C23.7793 167.027 23.826 166.953 23.9193 166.9L31.9793 163.14L32.0593 163.12C32.166 163.12 32.2193 163.18 32.2193 163.3V164.28C32.2193 164.387 32.166 164.46 32.0593 164.5L25.3193 167.54C25.2393 167.58 25.2393 167.62 25.3193 167.66L32.0593 170.7C32.166 170.74 32.2193 170.813 32.2193 170.92V171.9Z" fill="white"/>
<path d="M73 3H28C14.1929 3 3 14.1929 3 28V84.3439M306 3H351C364.807 3 376 14.1929 376 28V84.3439M376 157.656V214C376 227.807 364.807 239 351 239H306M73 239H28C14.1929 239 3 227.807 3 214V157.656" stroke="white" stroke-width="5" stroke-linecap="round"/>
</svg>
