<svg width="49" height="48" viewBox="0 0 49 48" fill="none" xmlns="http://www.w3.org/2000/svg">
<circle cx="24.5" cy="24" r="24" fill="#005FF9" fill-opacity="0.1"/>
<path fill-rule="evenodd" clip-rule="evenodd" d="M20.6968 16.7016C21.0231 16.1142 21.6422 15.75 22.314 15.75H27.6862C28.3581 15.75 28.9771 16.1143 29.3034 16.7016L30.5732 18.9872C30.888 19.5538 30.4783 20.25 29.8302 20.25H20.1701C19.522 20.25 19.1123 19.5538 19.427 18.9872L20.6968 16.7016ZM22.314 17.25C22.1869 17.25 22.0698 17.3189 22.0081 17.43L21.2748 18.75H28.7255L27.9922 17.43C27.9304 17.3189 27.8133 17.25 27.6862 17.25H22.314Z" fill="#0E1C42"/>
<path fill-rule="evenodd" clip-rule="evenodd" d="M17.5015 18.75C16.535 18.75 15.7515 19.5335 15.7515 20.5V30.5C15.7515 31.4665 16.535 32.25 17.5015 32.25H32.4985C33.465 32.25 34.2485 31.4665 34.2485 30.5V20.5C34.2485 19.5335 33.465 18.75 32.4985 18.75H17.5015ZM28 25.5C28 27.1568 26.6569 28.5 25 28.5C23.3431 28.5 22 27.1568 22 25.5C22 23.8431 23.3431 22.5 25 22.5C26.6569 22.5 28 23.8431 28 25.5ZM18.812 21.75C18.3978 21.75 18.062 22.0858 18.062 22.5C18.062 22.9142 18.3978 23.25 18.812 23.25H20.312C20.7262 23.25 21.062 22.9142 21.062 22.5C21.062 22.0858 20.7262 21.75 20.312 21.75L18.812 21.75Z" fill="#0E1C42"/>
</svg>
