<svg width="30" height="30" viewBox="0 0 30 30" fill="none" xmlns="http://www.w3.org/2000/svg">
<g id="Self Logomark Simple" clip-path="url(#clip0_973_4031)">
<path id="Vector" d="M15 30C23.2843 30 30 23.2843 30 15C30 6.71566 23.2843 0 15 0C6.71566 0 0 6.71566 0 15C0 23.2843 6.71566 30 15 30Z" fill="#FB2191"/>
<path id="Vector_2" d="M19.9982 18.3811C20.0592 19.2385 19.8704 20.0428 19.4386 20.7827C18.8625 21.7706 18.0348 22.4637 16.9418 22.8128C15.9767 23.1214 14.9961 23.1956 13.9864 23.0267C13.282 22.9086 12.59 22.7643 11.9243 22.5071C11.5062 22.3456 11.0938 22.1659 10.6854 21.9806C10.3471 21.8277 10.0773 21.6103 9.95693 21.227C9.72819 20.4997 10.1554 19.8386 10.9135 19.7816C11.3499 19.749 11.7486 19.8939 12.1497 20.0377C12.6659 20.2225 13.1759 20.4364 13.7058 20.5676C14.4833 20.7598 15.2722 20.8631 16.0696 20.6132C16.8061 20.3828 17.4929 19.603 17.5545 18.8552C17.6349 17.8792 17.3098 17.149 16.4661 16.6516C16.3372 16.5757 16.2191 16.4776 16.0839 16.4166C15.5414 16.173 15.3686 15.4708 15.7051 14.9032C16.0075 14.3939 16.6019 14.1708 17.1272 14.4406C17.7353 14.7532 18.3434 15.0881 18.8881 15.4976C19.5795 16.0173 19.8892 16.7868 19.9931 17.6327C20.0233 17.8786 19.9976 18.1313 19.9976 18.3806" fill="white"/>
<path id="Vector_3" d="M15.2636 6.88525C16.6417 6.93773 17.9332 7.272 19.1356 7.94226C19.6165 8.20979 19.811 8.61879 19.7454 9.16127C19.6604 9.86118 19.0387 10.2879 18.365 10.0871C17.9948 9.97698 17.6303 9.8435 17.2726 9.69747C16.4318 9.3535 15.5625 9.24056 14.668 9.37746C13.7656 9.51607 12.971 10.1242 12.9813 11.2439C12.9864 11.864 13.1724 12.3665 13.6755 12.7396C13.8358 12.8588 13.9955 12.9786 14.1541 13.1006C14.7724 13.577 14.7336 14.4429 14.0748 14.8718C13.7149 15.1068 13.3224 15.1856 12.9368 14.9888C12.2665 14.6471 11.6328 14.2472 11.2004 13.6021C10.5718 12.6643 10.3972 11.6307 10.549 10.5263C10.6779 9.58681 11.088 8.79619 11.7862 8.15332C12.4388 7.55266 13.2106 7.195 14.0776 7.04326C14.4701 6.97538 14.8683 6.93773 15.2636 6.88582" fill="white"/>
</g>
<defs>
<clipPath id="clip0_973_4031">
<rect width="30" height="30" fill="white"/>
</clipPath>
</defs>
</svg>
