<svg width="42" height="43" viewBox="0 0 42 43" fill="none" xmlns="http://www.w3.org/2000/svg">
<rect y="0.5" width="42" height="42" rx="8" fill="white"/>
<path d="M25.7772 13.7744L20 19.5526L14.2246 13.7754L14.2245 13.7753C13.9663 13.5171 13.6161 13.372 13.2509 13.372C12.8857 13.372 12.5355 13.5171 12.2772 13.7753C12.019 14.0336 11.8739 14.3838 11.8739 14.749C11.8739 15.1142 12.019 15.4644 12.2772 15.7226C12.2772 15.7226 12.2772 15.7226 12.2772 15.7226L18.0527 21.4999L12.2754 27.2753L12.2754 27.2753C12.0171 27.5336 11.8721 27.8838 11.8721 28.249C11.8721 28.6142 12.0171 28.9644 12.2754 29.2226C12.5336 29.4809 12.8838 29.6259 13.249 29.6259C13.6142 29.6259 13.9644 29.4809 14.2227 29.2226L19.9999 23.4472L25.7753 29.2245L25.7754 29.2245C26.0336 29.4827 26.3838 29.6278 26.749 29.6278C27.1142 29.6278 27.4644 29.4827 27.7227 29.2245C27.9809 28.9663 28.126 28.616 28.126 28.2509C28.126 27.8857 27.9809 27.5355 27.7227 27.2772C27.7227 27.2772 27.7227 27.2772 27.7227 27.2772L21.9472 21.4999L27.7245 15.7217C27.9828 15.4635 28.1278 15.1132 28.1278 14.748C28.1278 14.3829 27.9828 14.0326 27.7245 13.7744C27.4663 13.5162 27.1161 13.3711 26.7509 13.3711C26.3857 13.3711 26.0355 13.5162 25.7772 13.7744L25.7772 13.7744Z" fill="#0E1C42" stroke="#FB2191" stroke-width="0.5"/>
</svg>
