<svg width="91" height="90" viewBox="0 0 91 90" fill="none" xmlns="http://www.w3.org/2000/svg">
<g id="icon/passportChip">
<path id="passportChip" d="M3.5 19C1.84315 19 0.5 20.3431 0.5 22V42.1429H28.5731C29.1877 38.092 31.2328 34.3953 34.3379 31.7222C37.443 29.0492 41.4028 27.5767 45.5 27.5714C49.5986 27.5747 53.5604 29.0464 56.6672 31.7196C59.774 34.3928 61.8203 38.0906 62.4351 42.1429H90.5V22C90.5 20.3431 89.1569 19 87.5 19H3.5ZM45.5 32.7143C42.3174 32.7143 39.2652 33.9786 37.0147 36.229C34.7643 38.4794 33.5 41.5317 33.5 44.7143C33.5 47.8969 34.7643 50.9491 37.0147 53.1996C39.2652 55.45 42.3174 56.7143 45.5 56.7143C47.0759 56.7143 48.6363 56.4039 50.0922 55.8008C51.5481 55.1978 52.871 54.3139 53.9853 53.1996C55.0996 52.0853 55.9835 50.7624 56.5866 49.3065C57.1896 47.8506 57.5 46.2901 57.5 44.7143C57.5 43.1384 57.1896 41.578 56.5866 40.1221C55.9835 38.6662 55.0996 37.3433 53.9853 36.229C52.871 35.1147 51.5481 34.2308 50.0922 33.6277C48.6363 33.0247 47.0759 32.7143 45.5 32.7143ZM0.5 47.2857V67.4286C0.5 69.0854 1.84315 70.4286 3.5 70.4286H87.5C89.1569 70.4286 90.5 69.0854 90.5 67.4286V47.2857H62.4269C61.8123 51.3365 59.7672 55.0333 56.6621 57.7063C53.557 60.3794 49.5972 61.8519 45.5 61.8571C41.4014 61.8538 37.4396 60.3822 34.3328 57.709C31.226 55.0358 29.1797 51.3379 28.5649 47.2857H0.5Z" fill="black"/>
</g>
</svg>
