<svg width="49" height="48" viewBox="0 0 49 48" fill="none" xmlns="http://www.w3.org/2000/svg">
<circle cx="24.5" cy="24" r="24" fill="#005FF9" fill-opacity="0.1"/>
<path fill-rule="evenodd" clip-rule="evenodd" d="M26.2305 14.2495L17.6245 14.2495C16.658 14.2495 15.8745 15.033 15.8745 15.9995V32.0004C15.8745 32.9669 16.658 33.7504 17.6245 33.7504H31.3753C32.3418 33.7504 33.1253 32.9669 33.1253 32.0004V21.2918H28.9805C27.4617 21.2918 26.2305 20.0606 26.2305 18.5418V14.2495ZM20.25 23.4995C20.25 23.0853 20.5858 22.7495 21 22.7495H28C28.4142 22.7495 28.75 23.0853 28.75 23.4995C28.75 23.9137 28.4142 24.2495 28 24.2495H21C20.5858 24.2495 20.25 23.9137 20.25 23.4995ZM21 25.7495C20.5858 25.7495 20.25 26.0853 20.25 26.4995C20.25 26.9137 20.5858 27.2495 21 27.2495H28C28.4142 27.2495 28.75 26.9137 28.75 26.4995C28.75 26.0853 28.4142 25.7495 28 25.7495H21ZM20.25 29.4995C20.25 29.0853 20.5858 28.7495 21 28.7495H24C24.4142 28.7495 24.75 29.0853 24.75 29.4995C24.75 29.9137 24.4142 30.2495 24 30.2495H21C20.5858 30.2495 20.25 29.9137 20.25 29.4995Z" fill="#0E1C42"/>
<path d="M32.9614 19.7918C32.8731 19.6023 32.7506 19.4284 32.5981 19.2794L27.9587 14.7476C27.8876 14.6782 27.8112 14.6154 27.7305 14.5596V18.5418C27.7305 19.2322 28.2901 19.7918 28.9805 19.7918H32.9614Z" fill="#0E1C42"/>
</svg>
