<svg width="379" height="258" viewBox="0 0 379 258" fill="none" xmlns="http://www.w3.org/2000/svg">
<line x1="2.88525" y1="191.54" x2="376.115" y2="191.54" stroke="white"/>
<path d="M359.691 231.61C359.691 231.657 359.678 231.69 359.651 231.71C359.624 231.723 359.591 231.72 359.551 231.7L355.501 229.91C355.441 229.877 355.411 229.83 355.411 229.77V228.75C355.411 228.683 355.441 228.637 355.501 228.61L359.551 226.82C359.578 226.807 359.598 226.8 359.611 226.8C359.664 226.8 359.691 226.837 359.691 226.91V228C359.691 228.06 359.661 228.107 359.601 228.14L356.931 229.23C356.891 229.25 356.891 229.27 356.931 229.29L359.601 230.37C359.661 230.397 359.691 230.443 359.691 230.51V231.61Z" fill="white"/>
<path d="M351.828 231.61C351.828 231.657 351.815 231.69 351.788 231.71C351.761 231.723 351.728 231.72 351.688 231.7L347.638 229.91C347.578 229.877 347.548 229.83 347.548 229.77V228.75C347.548 228.683 347.578 228.637 347.638 228.61L351.688 226.82C351.715 226.807 351.734 226.8 351.748 226.8C351.801 226.8 351.828 226.837 351.828 226.91V228C351.828 228.06 351.798 228.107 351.738 228.14L349.068 229.23C349.028 229.25 349.028 229.27 349.068 229.29L351.738 230.37C351.798 230.397 351.828 230.443 351.828 230.51V231.61Z" fill="white"/>
<path d="M343.965 231.61C343.965 231.657 343.951 231.69 343.925 231.71C343.898 231.723 343.865 231.72 343.825 231.7L339.775 229.91C339.715 229.877 339.685 229.83 339.685 229.77V228.75C339.685 228.683 339.715 228.637 339.775 228.61L343.825 226.82C343.851 226.807 343.871 226.8 343.885 226.8C343.938 226.8 343.965 226.837 343.965 226.91V228C343.965 228.06 343.935 228.107 343.875 228.14L341.205 229.23C341.165 229.25 341.165 229.27 341.205 229.29L343.875 230.37C343.935 230.397 343.965 230.443 343.965 230.51V231.61Z" fill="white"/>
<path d="M336.101 231.61C336.101 231.657 336.088 231.69 336.061 231.71C336.035 231.723 336.001 231.72 335.961 231.7L331.911 229.91C331.851 229.877 331.821 229.83 331.821 229.77V228.75C331.821 228.683 331.851 228.637 331.911 228.61L335.961 226.82C335.988 226.807 336.008 226.8 336.021 226.8C336.075 226.8 336.101 226.837 336.101 226.91V228C336.101 228.06 336.071 228.107 336.011 228.14L333.341 229.23C333.301 229.25 333.301 229.27 333.341 229.29L336.011 230.37C336.071 230.397 336.101 230.443 336.101 230.51V231.61Z" fill="white"/>
<path d="M328.238 231.61C328.238 231.657 328.225 231.69 328.198 231.71C328.171 231.723 328.138 231.72 328.098 231.7L324.048 229.91C323.988 229.877 323.958 229.83 323.958 229.77V228.75C323.958 228.683 323.988 228.637 324.048 228.61L328.098 226.82C328.125 226.807 328.145 226.8 328.158 226.8C328.211 226.8 328.238 226.837 328.238 226.91V228C328.238 228.06 328.208 228.107 328.148 228.14L325.478 229.23C325.438 229.25 325.438 229.27 325.478 229.29L328.148 230.37C328.208 230.397 328.238 230.443 328.238 230.51V231.61Z" fill="white"/>
<path d="M320.375 231.61C320.375 231.657 320.361 231.69 320.335 231.71C320.308 231.723 320.275 231.72 320.235 231.7L316.185 229.91C316.125 229.877 316.095 229.83 316.095 229.77V228.75C316.095 228.683 316.125 228.637 316.185 228.61L320.235 226.82C320.261 226.807 320.281 226.8 320.295 226.8C320.348 226.8 320.375 226.837 320.375 226.91V228C320.375 228.06 320.345 228.107 320.285 228.14L317.615 229.23C317.575 229.25 317.575 229.27 317.615 229.29L320.285 230.37C320.345 230.397 320.375 230.443 320.375 230.51V231.61Z" fill="white"/>
<path d="M312.511 231.61C312.511 231.657 312.498 231.69 312.471 231.71C312.445 231.723 312.411 231.72 312.371 231.7L308.321 229.91C308.261 229.877 308.231 229.83 308.231 229.77V228.75C308.231 228.683 308.261 228.637 308.321 228.61L312.371 226.82C312.398 226.807 312.418 226.8 312.431 226.8C312.485 226.8 312.511 226.837 312.511 226.91V228C312.511 228.06 312.481 228.107 312.421 228.14L309.751 229.23C309.711 229.25 309.711 229.27 309.751 229.29L312.421 230.37C312.481 230.397 312.511 230.443 312.511 230.51V231.61Z" fill="white"/>
<path d="M304.648 231.61C304.648 231.657 304.635 231.69 304.608 231.71C304.581 231.723 304.548 231.72 304.508 231.7L300.458 229.91C300.398 229.877 300.368 229.83 300.368 229.77V228.75C300.368 228.683 300.398 228.637 300.458 228.61L304.508 226.82C304.535 226.807 304.555 226.8 304.568 226.8C304.621 226.8 304.648 226.837 304.648 226.91V228C304.648 228.06 304.618 228.107 304.558 228.14L301.888 229.23C301.848 229.25 301.848 229.27 301.888 229.29L304.558 230.37C304.618 230.397 304.648 230.443 304.648 230.51V231.61Z" fill="white"/>
<path d="M296.785 231.61C296.785 231.657 296.772 231.69 296.745 231.71C296.718 231.723 296.685 231.72 296.645 231.7L292.595 229.91C292.535 229.877 292.505 229.83 292.505 229.77V228.75C292.505 228.683 292.535 228.637 292.595 228.61L296.645 226.82C296.672 226.807 296.692 226.8 296.705 226.8C296.758 226.8 296.785 226.837 296.785 226.91V228C296.785 228.06 296.755 228.107 296.695 228.14L294.025 229.23C293.985 229.25 293.985 229.27 294.025 229.29L296.695 230.37C296.755 230.397 296.785 230.443 296.785 230.51V231.61Z" fill="white"/>
<path d="M288.922 231.61C288.922 231.657 288.908 231.69 288.882 231.71C288.855 231.723 288.822 231.72 288.782 231.7L284.732 229.91C284.672 229.877 284.642 229.83 284.642 229.77V228.75C284.642 228.683 284.672 228.637 284.732 228.61L288.782 226.82C288.808 226.807 288.828 226.8 288.842 226.8C288.895 226.8 288.922 226.837 288.922 226.91V228C288.922 228.06 288.892 228.107 288.832 228.14L286.162 229.23C286.122 229.25 286.122 229.27 286.162 229.29L288.832 230.37C288.892 230.397 288.922 230.443 288.922 230.51V231.61Z" fill="white"/>
<path d="M281.058 231.61C281.058 231.657 281.045 231.69 281.018 231.71C280.992 231.723 280.958 231.72 280.918 231.7L276.868 229.91C276.808 229.877 276.778 229.83 276.778 229.77V228.75C276.778 228.683 276.808 228.637 276.868 228.61L280.918 226.82C280.945 226.807 280.965 226.8 280.978 226.8C281.032 226.8 281.058 226.837 281.058 226.91V228C281.058 228.06 281.028 228.107 280.968 228.14L278.298 229.23C278.258 229.25 278.258 229.27 278.298 229.29L280.968 230.37C281.028 230.397 281.058 230.443 281.058 230.51V231.61Z" fill="white"/>
<path d="M273.195 231.61C273.195 231.657 273.182 231.69 273.155 231.71C273.128 231.723 273.095 231.72 273.055 231.7L269.005 229.91C268.945 229.877 268.915 229.83 268.915 229.77V228.75C268.915 228.683 268.945 228.637 269.005 228.61L273.055 226.82C273.082 226.807 273.102 226.8 273.115 226.8C273.168 226.8 273.195 226.837 273.195 226.91V228C273.195 228.06 273.165 228.107 273.105 228.14L270.435 229.23C270.395 229.25 270.395 229.27 270.435 229.29L273.105 230.37C273.165 230.397 273.195 230.443 273.195 230.51V231.61Z" fill="white"/>
<path d="M265.332 231.61C265.332 231.657 265.318 231.69 265.292 231.71C265.265 231.723 265.232 231.72 265.192 231.7L261.142 229.91C261.082 229.877 261.052 229.83 261.052 229.77V228.75C261.052 228.683 261.082 228.637 261.142 228.61L265.192 226.82C265.218 226.807 265.238 226.8 265.252 226.8C265.305 226.8 265.332 226.837 265.332 226.91V228C265.332 228.06 265.302 228.107 265.242 228.14L262.572 229.23C262.532 229.25 262.532 229.27 262.572 229.29L265.242 230.37C265.302 230.397 265.332 230.443 265.332 230.51V231.61Z" fill="white"/>
<path d="M257.468 231.61C257.468 231.657 257.455 231.69 257.428 231.71C257.402 231.723 257.368 231.72 257.328 231.7L253.278 229.91C253.218 229.877 253.188 229.83 253.188 229.77V228.75C253.188 228.683 253.218 228.637 253.278 228.61L257.328 226.82C257.355 226.807 257.375 226.8 257.388 226.8C257.442 226.8 257.468 226.837 257.468 226.91V228C257.468 228.06 257.438 228.107 257.378 228.14L254.708 229.23C254.668 229.25 254.668 229.27 254.708 229.29L257.378 230.37C257.438 230.397 257.468 230.443 257.468 230.51V231.61Z" fill="white"/>
<path d="M249.605 231.61C249.605 231.657 249.592 231.69 249.565 231.71C249.539 231.723 249.505 231.72 249.465 231.7L245.415 229.91C245.355 229.877 245.325 229.83 245.325 229.77V228.75C245.325 228.683 245.355 228.637 245.415 228.61L249.465 226.82C249.492 226.807 249.512 226.8 249.525 226.8C249.579 226.8 249.605 226.837 249.605 226.91V228C249.605 228.06 249.575 228.107 249.515 228.14L246.845 229.23C246.805 229.25 246.805 229.27 246.845 229.29L249.515 230.37C249.575 230.397 249.605 230.443 249.605 230.51V231.61Z" fill="white"/>
<path d="M241.742 231.61C241.742 231.657 241.729 231.69 241.702 231.71C241.675 231.723 241.642 231.72 241.602 231.7L237.552 229.91C237.492 229.877 237.462 229.83 237.462 229.77V228.75C237.462 228.683 237.492 228.637 237.552 228.61L241.602 226.82C241.629 226.807 241.649 226.8 241.662 226.8C241.715 226.8 241.742 226.837 241.742 226.91V228C241.742 228.06 241.712 228.107 241.652 228.14L238.982 229.23C238.942 229.25 238.942 229.27 238.982 229.29L241.652 230.37C241.712 230.397 241.742 230.443 241.742 230.51V231.61Z" fill="white"/>
<path d="M233.879 231.61C233.879 231.657 233.865 231.69 233.839 231.71C233.812 231.723 233.779 231.72 233.739 231.7L229.689 229.91C229.629 229.877 229.599 229.83 229.599 229.77V228.75C229.599 228.683 229.629 228.637 229.689 228.61L233.739 226.82C233.765 226.807 233.785 226.8 233.799 226.8C233.852 226.8 233.879 226.837 233.879 226.91V228C233.879 228.06 233.849 228.107 233.789 228.14L231.119 229.23C231.079 229.25 231.079 229.27 231.119 229.29L233.789 230.37C233.849 230.397 233.879 230.443 233.879 230.51V231.61Z" fill="white"/>
<path d="M226.015 231.61C226.015 231.657 226.002 231.69 225.975 231.71C225.949 231.723 225.915 231.72 225.875 231.7L221.825 229.91C221.765 229.877 221.735 229.83 221.735 229.77V228.75C221.735 228.683 221.765 228.637 221.825 228.61L225.875 226.82C225.902 226.807 225.922 226.8 225.935 226.8C225.989 226.8 226.015 226.837 226.015 226.91V228C226.015 228.06 225.985 228.107 225.925 228.14L223.255 229.23C223.215 229.25 223.215 229.27 223.255 229.29L225.925 230.37C225.985 230.397 226.015 230.443 226.015 230.51V231.61Z" fill="white"/>
<path d="M218.152 231.61C218.152 231.657 218.139 231.69 218.112 231.71C218.085 231.723 218.052 231.72 218.012 231.7L213.962 229.91C213.902 229.877 213.872 229.83 213.872 229.77V228.75C213.872 228.683 213.902 228.637 213.962 228.61L218.012 226.82C218.039 226.807 218.059 226.8 218.072 226.8C218.125 226.8 218.152 226.837 218.152 226.91V228C218.152 228.06 218.122 228.107 218.062 228.14L215.392 229.23C215.352 229.25 215.352 229.27 215.392 229.29L218.062 230.37C218.122 230.397 218.152 230.443 218.152 230.51V231.61Z" fill="white"/>
<path d="M210.289 231.61C210.289 231.657 210.275 231.69 210.249 231.71C210.222 231.723 210.189 231.72 210.149 231.7L206.099 229.91C206.039 229.877 206.009 229.83 206.009 229.77V228.75C206.009 228.683 206.039 228.637 206.099 228.61L210.149 226.82C210.175 226.807 210.195 226.8 210.209 226.8C210.262 226.8 210.289 226.837 210.289 226.91V228C210.289 228.06 210.259 228.107 210.199 228.14L207.529 229.23C207.489 229.25 207.489 229.27 207.529 229.29L210.199 230.37C210.259 230.397 210.289 230.443 210.289 230.51V231.61Z" fill="white"/>
<path d="M202.426 231.61C202.426 231.657 202.412 231.69 202.386 231.71C202.359 231.723 202.326 231.72 202.286 231.7L198.236 229.91C198.176 229.877 198.146 229.83 198.146 229.77V228.75C198.146 228.683 198.176 228.637 198.236 228.61L202.286 226.82C202.312 226.807 202.332 226.8 202.346 226.8C202.399 226.8 202.426 226.837 202.426 226.91V228C202.426 228.06 202.396 228.107 202.336 228.14L199.666 229.23C199.626 229.25 199.626 229.27 199.666 229.29L202.336 230.37C202.396 230.397 202.426 230.443 202.426 230.51V231.61Z" fill="white"/>
<path d="M194.562 231.61C194.562 231.657 194.549 231.69 194.522 231.71C194.496 231.723 194.462 231.72 194.422 231.7L190.372 229.91C190.312 229.877 190.282 229.83 190.282 229.77V228.75C190.282 228.683 190.312 228.637 190.372 228.61L194.422 226.82C194.449 226.807 194.469 226.8 194.482 226.8C194.536 226.8 194.562 226.837 194.562 226.91V228C194.562 228.06 194.532 228.107 194.472 228.14L191.802 229.23C191.762 229.25 191.762 229.27 191.802 229.29L194.472 230.37C194.532 230.397 194.562 230.443 194.562 230.51V231.61Z" fill="white"/>
<path d="M186.699 231.61C186.699 231.657 186.686 231.69 186.659 231.71C186.632 231.723 186.599 231.72 186.559 231.7L182.509 229.91C182.449 229.877 182.419 229.83 182.419 229.77V228.75C182.419 228.683 182.449 228.637 182.509 228.61L186.559 226.82C186.586 226.807 186.606 226.8 186.619 226.8C186.672 226.8 186.699 226.837 186.699 226.91V228C186.699 228.06 186.669 228.107 186.609 228.14L183.939 229.23C183.899 229.25 183.899 229.27 183.939 229.29L186.609 230.37C186.669 230.397 186.699 230.443 186.699 230.51V231.61Z" fill="white"/>
<path d="M178.836 231.61C178.836 231.657 178.822 231.69 178.796 231.71C178.769 231.723 178.736 231.72 178.696 231.7L174.646 229.91C174.586 229.877 174.556 229.83 174.556 229.77V228.75C174.556 228.683 174.586 228.637 174.646 228.61L178.696 226.82C178.722 226.807 178.742 226.8 178.756 226.8C178.809 226.8 178.836 226.837 178.836 226.91V228C178.836 228.06 178.806 228.107 178.746 228.14L176.076 229.23C176.036 229.25 176.036 229.27 176.076 229.29L178.746 230.37C178.806 230.397 178.836 230.443 178.836 230.51V231.61Z" fill="white"/>
<path d="M170.972 231.61C170.972 231.657 170.959 231.69 170.932 231.71C170.906 231.723 170.872 231.72 170.832 231.7L166.782 229.91C166.722 229.877 166.692 229.83 166.692 229.77V228.75C166.692 228.683 166.722 228.637 166.782 228.61L170.832 226.82C170.859 226.807 170.879 226.8 170.892 226.8C170.946 226.8 170.972 226.837 170.972 226.91V228C170.972 228.06 170.942 228.107 170.882 228.14L168.212 229.23C168.172 229.25 168.172 229.27 168.212 229.29L170.882 230.37C170.942 230.397 170.972 230.443 170.972 230.51V231.61Z" fill="white"/>
<path d="M163.109 231.61C163.109 231.657 163.096 231.69 163.069 231.71C163.042 231.723 163.009 231.72 162.969 231.7L158.919 229.91C158.859 229.877 158.829 229.83 158.829 229.77V228.75C158.829 228.683 158.859 228.637 158.919 228.61L162.969 226.82C162.996 226.807 163.016 226.8 163.029 226.8C163.082 226.8 163.109 226.837 163.109 226.91V228C163.109 228.06 163.079 228.107 163.019 228.14L160.349 229.23C160.309 229.25 160.309 229.27 160.349 229.29L163.019 230.37C163.079 230.397 163.109 230.443 163.109 230.51V231.61Z" fill="white"/>
<path d="M155.246 231.61C155.246 231.657 155.232 231.69 155.206 231.71C155.179 231.723 155.146 231.72 155.106 231.7L151.056 229.91C150.996 229.877 150.966 229.83 150.966 229.77V228.75C150.966 228.683 150.996 228.637 151.056 228.61L155.106 226.82C155.132 226.807 155.152 226.8 155.166 226.8C155.219 226.8 155.246 226.837 155.246 226.91V228C155.246 228.06 155.216 228.107 155.156 228.14L152.486 229.23C152.446 229.25 152.446 229.27 152.486 229.29L155.156 230.37C155.216 230.397 155.246 230.443 155.246 230.51V231.61Z" fill="white"/>
<path d="M147.383 231.61C147.383 231.657 147.369 231.69 147.343 231.71C147.316 231.723 147.283 231.72 147.243 231.7L143.193 229.91C143.133 229.877 143.103 229.83 143.103 229.77V228.75C143.103 228.683 143.133 228.637 143.193 228.61L147.243 226.82C147.269 226.807 147.289 226.8 147.303 226.8C147.356 226.8 147.383 226.837 147.383 226.91V228C147.383 228.06 147.353 228.107 147.293 228.14L144.623 229.23C144.583 229.25 144.583 229.27 144.623 229.29L147.293 230.37C147.353 230.397 147.383 230.443 147.383 230.51V231.61Z" fill="white"/>
<path d="M139.519 231.61C139.519 231.657 139.506 231.69 139.479 231.71C139.453 231.723 139.419 231.72 139.379 231.7L135.329 229.91C135.269 229.877 135.239 229.83 135.239 229.77V228.75C135.239 228.683 135.269 228.637 135.329 228.61L139.379 226.82C139.406 226.807 139.426 226.8 139.439 226.8C139.493 226.8 139.519 226.837 139.519 226.91V228C139.519 228.06 139.489 228.107 139.429 228.14L136.759 229.23C136.719 229.25 136.719 229.27 136.759 229.29L139.429 230.37C139.489 230.397 139.519 230.443 139.519 230.51V231.61Z" fill="white"/>
<path d="M131.656 231.61C131.656 231.657 131.643 231.69 131.616 231.71C131.589 231.723 131.556 231.72 131.516 231.7L127.466 229.91C127.406 229.877 127.376 229.83 127.376 229.77V228.75C127.376 228.683 127.406 228.637 127.466 228.61L131.516 226.82C131.543 226.807 131.563 226.8 131.576 226.8C131.629 226.8 131.656 226.837 131.656 226.91V228C131.656 228.06 131.626 228.107 131.566 228.14L128.896 229.23C128.856 229.25 128.856 229.27 128.896 229.29L131.566 230.37C131.626 230.397 131.656 230.443 131.656 230.51V231.61Z" fill="white"/>
<path d="M123.793 231.61C123.793 231.657 123.779 231.69 123.753 231.71C123.726 231.723 123.693 231.72 123.653 231.7L119.603 229.91C119.543 229.877 119.513 229.83 119.513 229.77V228.75C119.513 228.683 119.543 228.637 119.603 228.61L123.653 226.82C123.679 226.807 123.699 226.8 123.713 226.8C123.766 226.8 123.793 226.837 123.793 226.91V228C123.793 228.06 123.763 228.107 123.703 228.14L121.033 229.23C120.993 229.25 120.993 229.27 121.033 229.29L123.703 230.37C123.763 230.397 123.793 230.443 123.793 230.51V231.61Z" fill="white"/>
<path d="M115.929 231.61C115.929 231.657 115.916 231.69 115.889 231.71C115.863 231.723 115.829 231.72 115.789 231.7L111.739 229.91C111.679 229.877 111.649 229.83 111.649 229.77V228.75C111.649 228.683 111.679 228.637 111.739 228.61L115.789 226.82C115.816 226.807 115.836 226.8 115.849 226.8C115.903 226.8 115.929 226.837 115.929 226.91V228C115.929 228.06 115.899 228.107 115.839 228.14L113.169 229.23C113.129 229.25 113.129 229.27 113.169 229.29L115.839 230.37C115.899 230.397 115.929 230.443 115.929 230.51V231.61Z" fill="white"/>
<path d="M108.066 231.61C108.066 231.657 108.053 231.69 108.026 231.71C107.999 231.723 107.966 231.72 107.926 231.7L103.876 229.91C103.816 229.877 103.786 229.83 103.786 229.77V228.75C103.786 228.683 103.816 228.637 103.876 228.61L107.926 226.82C107.953 226.807 107.973 226.8 107.986 226.8C108.039 226.8 108.066 226.837 108.066 226.91V228C108.066 228.06 108.036 228.107 107.976 228.14L105.306 229.23C105.266 229.25 105.266 229.27 105.306 229.29L107.976 230.37C108.036 230.397 108.066 230.443 108.066 230.51V231.61Z" fill="white"/>
<path d="M100.203 231.61C100.203 231.657 100.19 231.69 100.163 231.71C100.136 231.723 100.103 231.72 100.063 231.7L96.0128 229.91C95.9529 229.877 95.9229 229.83 95.9229 229.77V228.75C95.9229 228.683 95.9529 228.637 96.0128 228.61L100.063 226.82C100.09 226.807 100.11 226.8 100.123 226.8C100.176 226.8 100.203 226.837 100.203 226.91V228C100.203 228.06 100.173 228.107 100.113 228.14L97.4428 229.23C97.4028 229.25 97.4028 229.27 97.4428 229.29L100.113 230.37C100.173 230.397 100.203 230.443 100.203 230.51V231.61Z" fill="white"/>
<path d="M92.3396 231.61C92.3396 231.657 92.3262 231.69 92.2996 231.71C92.2729 231.723 92.2396 231.72 92.1996 231.7L88.1496 229.91C88.0896 229.877 88.0596 229.83 88.0596 229.77V228.75C88.0596 228.683 88.0896 228.637 88.1496 228.61L92.1996 226.82C92.2262 226.807 92.2462 226.8 92.2596 226.8C92.3129 226.8 92.3396 226.837 92.3396 226.91V228C92.3396 228.06 92.3096 228.107 92.2496 228.14L89.5796 229.23C89.5396 229.25 89.5396 229.27 89.5796 229.29L92.2496 230.37C92.3096 230.397 92.3396 230.443 92.3396 230.51V231.61Z" fill="white"/>
<path d="M84.4763 231.61C84.4763 231.657 84.463 231.69 84.4363 231.71C84.4096 231.723 84.3763 231.72 84.3363 231.7L80.2863 229.91C80.2263 229.877 80.1963 229.83 80.1963 229.77V228.75C80.1963 228.683 80.2263 228.637 80.2863 228.61L84.3363 226.82C84.363 226.807 84.3829 226.8 84.3963 226.8C84.4496 226.8 84.4763 226.837 84.4763 226.91V228C84.4763 228.06 84.4463 228.107 84.3863 228.14L81.7163 229.23C81.6763 229.25 81.6763 229.27 81.7163 229.29L84.3863 230.37C84.4463 230.397 84.4763 230.443 84.4763 230.51V231.61Z" fill="white"/>
<path d="M76.613 231.61C76.613 231.657 76.5997 231.69 76.573 231.71C76.5463 231.723 76.513 231.72 76.473 231.7L72.423 229.91C72.363 229.877 72.333 229.83 72.333 229.77V228.75C72.333 228.683 72.363 228.637 72.423 228.61L76.473 226.82C76.4997 226.807 76.5197 226.8 76.533 226.8C76.5863 226.8 76.613 226.837 76.613 226.91V228C76.613 228.06 76.583 228.107 76.523 228.14L73.853 229.23C73.813 229.25 73.813 229.27 73.853 229.29L76.523 230.37C76.583 230.397 76.613 230.443 76.613 230.51V231.61Z" fill="white"/>
<path d="M68.7497 231.61C68.7497 231.657 68.7364 231.69 68.7097 231.71C68.6831 231.723 68.6497 231.72 68.6097 231.7L64.5597 229.91C64.4997 229.877 64.4697 229.83 64.4697 229.77V228.75C64.4697 228.683 64.4997 228.637 64.5597 228.61L68.6097 226.82C68.6364 226.807 68.6564 226.8 68.6697 226.8C68.7231 226.8 68.7497 226.837 68.7497 226.91V228C68.7497 228.06 68.7197 228.107 68.6597 228.14L65.9897 229.23C65.9497 229.25 65.9497 229.27 65.9897 229.29L68.6597 230.37C68.7197 230.397 68.7497 230.443 68.7497 230.51V231.61Z" fill="white"/>
<path d="M60.8864 231.61C60.8864 231.657 60.8731 231.69 60.8464 231.71C60.8198 231.723 60.7864 231.72 60.7464 231.7L56.6964 229.91C56.6364 229.877 56.6064 229.83 56.6064 229.77V228.75C56.6064 228.683 56.6364 228.637 56.6964 228.61L60.7464 226.82C60.7731 226.807 60.7931 226.8 60.8064 226.8C60.8598 226.8 60.8864 226.837 60.8864 226.91V228C60.8864 228.06 60.8564 228.107 60.7964 228.14L58.1264 229.23C58.0864 229.25 58.0864 229.27 58.1264 229.29L60.7964 230.37C60.8564 230.397 60.8864 230.443 60.8864 230.51V231.61Z" fill="white"/>
<path d="M53.0232 231.61C53.0232 231.657 53.0098 231.69 52.9832 231.71C52.9565 231.723 52.9232 231.72 52.8832 231.7L48.8332 229.91C48.7732 229.877 48.7432 229.83 48.7432 229.77V228.75C48.7432 228.683 48.7732 228.637 48.8332 228.61L52.8832 226.82C52.9098 226.807 52.9298 226.8 52.9432 226.8C52.9965 226.8 53.0232 226.837 53.0232 226.91V228C53.0232 228.06 52.9932 228.107 52.9332 228.14L50.2632 229.23C50.2232 229.25 50.2232 229.27 50.2632 229.29L52.9332 230.37C52.9932 230.397 53.0232 230.443 53.0232 230.51V231.61Z" fill="white"/>
<path d="M45.1599 231.61C45.1599 231.657 45.1465 231.69 45.1199 231.71C45.0932 231.723 45.0599 231.72 45.0199 231.7L40.9699 229.91C40.9099 229.877 40.8799 229.83 40.8799 229.77V228.75C40.8799 228.683 40.9099 228.637 40.9699 228.61L45.0199 226.82C45.0465 226.807 45.0665 226.8 45.0799 226.8C45.1332 226.8 45.1599 226.837 45.1599 226.91V228C45.1599 228.06 45.1299 228.107 45.0699 228.14L42.3999 229.23C42.3599 229.25 42.3599 229.27 42.3999 229.29L45.0699 230.37C45.1299 230.397 45.1599 230.443 45.1599 230.51V231.61Z" fill="white"/>
<path d="M37.2966 231.61C37.2966 231.657 37.2833 231.69 37.2566 231.71C37.2299 231.723 37.1966 231.72 37.1566 231.7L33.1066 229.91C33.0466 229.877 33.0166 229.83 33.0166 229.77V228.75C33.0166 228.683 33.0466 228.637 33.1066 228.61L37.1566 226.82C37.1833 226.807 37.2033 226.8 37.2166 226.8C37.2699 226.8 37.2966 226.837 37.2966 226.91V228C37.2966 228.06 37.2666 228.107 37.2066 228.14L34.5366 229.23C34.4966 229.25 34.4966 229.27 34.5366 229.29L37.2066 230.37C37.2666 230.397 37.2966 230.443 37.2966 230.51V231.61Z" fill="white"/>
<path d="M29.4333 231.61C29.4333 231.657 29.42 231.69 29.3933 231.71C29.3667 231.723 29.3333 231.72 29.2933 231.7L25.2433 229.91C25.1833 229.877 25.1533 229.83 25.1533 229.77V228.75C25.1533 228.683 25.1833 228.637 25.2433 228.61L29.2933 226.82C29.32 226.807 29.34 226.8 29.3533 226.8C29.4067 226.8 29.4333 226.837 29.4333 226.91V228C29.4333 228.06 29.4033 228.107 29.3433 228.14L26.6733 229.23C26.6333 229.25 26.6333 229.27 26.6733 229.29L29.3433 230.37C29.4033 230.397 29.4333 230.443 29.4333 230.51V231.61Z" fill="white"/>
<path d="M21.57 231.61C21.57 231.657 21.5567 231.69 21.53 231.71C21.5034 231.723 21.47 231.72 21.43 231.7L17.38 229.91C17.32 229.877 17.29 229.83 17.29 229.77V228.75C17.29 228.683 17.32 228.637 17.38 228.61L21.43 226.82C21.4567 226.807 21.4767 226.8 21.49 226.8C21.5434 226.8 21.57 226.837 21.57 226.91V228C21.57 228.06 21.54 228.107 21.48 228.14L18.81 229.23C18.77 229.25 18.77 229.27 18.81 229.29L21.48 230.37C21.54 230.397 21.57 230.443 21.57 230.51V231.61Z" fill="white"/>
<path d="M359.691 211.61C359.691 211.657 359.678 211.69 359.651 211.71C359.624 211.723 359.591 211.72 359.551 211.7L355.501 209.91C355.441 209.877 355.411 209.83 355.411 209.77V208.75C355.411 208.683 355.441 208.637 355.501 208.61L359.551 206.82C359.578 206.807 359.598 206.8 359.611 206.8C359.664 206.8 359.691 206.837 359.691 206.91V208C359.691 208.06 359.661 208.107 359.601 208.14L356.931 209.23C356.891 209.25 356.891 209.27 356.931 209.29L359.601 210.37C359.661 210.397 359.691 210.443 359.691 210.51V211.61Z" fill="white"/>
<path d="M351.828 211.61C351.828 211.657 351.815 211.69 351.788 211.71C351.761 211.723 351.728 211.72 351.688 211.7L347.638 209.91C347.578 209.877 347.548 209.83 347.548 209.77V208.75C347.548 208.683 347.578 208.637 347.638 208.61L351.688 206.82C351.715 206.807 351.734 206.8 351.748 206.8C351.801 206.8 351.828 206.837 351.828 206.91V208C351.828 208.06 351.798 208.107 351.738 208.14L349.068 209.23C349.028 209.25 349.028 209.27 349.068 209.29L351.738 210.37C351.798 210.397 351.828 210.443 351.828 210.51V211.61Z" fill="white"/>
<path d="M343.965 211.61C343.965 211.657 343.951 211.69 343.925 211.71C343.898 211.723 343.865 211.72 343.825 211.7L339.775 209.91C339.715 209.877 339.685 209.83 339.685 209.77V208.75C339.685 208.683 339.715 208.637 339.775 208.61L343.825 206.82C343.851 206.807 343.871 206.8 343.885 206.8C343.938 206.8 343.965 206.837 343.965 206.91V208C343.965 208.06 343.935 208.107 343.875 208.14L341.205 209.23C341.165 209.25 341.165 209.27 341.205 209.29L343.875 210.37C343.935 210.397 343.965 210.443 343.965 210.51V211.61Z" fill="white"/>
<path d="M336.101 211.61C336.101 211.657 336.088 211.69 336.061 211.71C336.035 211.723 336.001 211.72 335.961 211.7L331.911 209.91C331.851 209.877 331.821 209.83 331.821 209.77V208.75C331.821 208.683 331.851 208.637 331.911 208.61L335.961 206.82C335.988 206.807 336.008 206.8 336.021 206.8C336.075 206.8 336.101 206.837 336.101 206.91V208C336.101 208.06 336.071 208.107 336.011 208.14L333.341 209.23C333.301 209.25 333.301 209.27 333.341 209.29L336.011 210.37C336.071 210.397 336.101 210.443 336.101 210.51V211.61Z" fill="white"/>
<path d="M328.238 211.61C328.238 211.657 328.225 211.69 328.198 211.71C328.171 211.723 328.138 211.72 328.098 211.7L324.048 209.91C323.988 209.877 323.958 209.83 323.958 209.77V208.75C323.958 208.683 323.988 208.637 324.048 208.61L328.098 206.82C328.125 206.807 328.145 206.8 328.158 206.8C328.211 206.8 328.238 206.837 328.238 206.91V208C328.238 208.06 328.208 208.107 328.148 208.14L325.478 209.23C325.438 209.25 325.438 209.27 325.478 209.29L328.148 210.37C328.208 210.397 328.238 210.443 328.238 210.51V211.61Z" fill="white"/>
<path d="M320.375 211.61C320.375 211.657 320.361 211.69 320.335 211.71C320.308 211.723 320.275 211.72 320.235 211.7L316.185 209.91C316.125 209.877 316.095 209.83 316.095 209.77V208.75C316.095 208.683 316.125 208.637 316.185 208.61L320.235 206.82C320.261 206.807 320.281 206.8 320.295 206.8C320.348 206.8 320.375 206.837 320.375 206.91V208C320.375 208.06 320.345 208.107 320.285 208.14L317.615 209.23C317.575 209.25 317.575 209.27 317.615 209.29L320.285 210.37C320.345 210.397 320.375 210.443 320.375 210.51V211.61Z" fill="white"/>
<path d="M312.511 211.61C312.511 211.657 312.498 211.69 312.471 211.71C312.445 211.723 312.411 211.72 312.371 211.7L308.321 209.91C308.261 209.877 308.231 209.83 308.231 209.77V208.75C308.231 208.683 308.261 208.637 308.321 208.61L312.371 206.82C312.398 206.807 312.418 206.8 312.431 206.8C312.485 206.8 312.511 206.837 312.511 206.91V208C312.511 208.06 312.481 208.107 312.421 208.14L309.751 209.23C309.711 209.25 309.711 209.27 309.751 209.29L312.421 210.37C312.481 210.397 312.511 210.443 312.511 210.51V211.61Z" fill="white"/>
<path d="M304.648 211.61C304.648 211.657 304.635 211.69 304.608 211.71C304.581 211.723 304.548 211.72 304.508 211.7L300.458 209.91C300.398 209.877 300.368 209.83 300.368 209.77V208.75C300.368 208.683 300.398 208.637 300.458 208.61L304.508 206.82C304.535 206.807 304.555 206.8 304.568 206.8C304.621 206.8 304.648 206.837 304.648 206.91V208C304.648 208.06 304.618 208.107 304.558 208.14L301.888 209.23C301.848 209.25 301.848 209.27 301.888 209.29L304.558 210.37C304.618 210.397 304.648 210.443 304.648 210.51V211.61Z" fill="white"/>
<path d="M296.785 211.61C296.785 211.657 296.772 211.69 296.745 211.71C296.718 211.723 296.685 211.72 296.645 211.7L292.595 209.91C292.535 209.877 292.505 209.83 292.505 209.77V208.75C292.505 208.683 292.535 208.637 292.595 208.61L296.645 206.82C296.672 206.807 296.692 206.8 296.705 206.8C296.758 206.8 296.785 206.837 296.785 206.91V208C296.785 208.06 296.755 208.107 296.695 208.14L294.025 209.23C293.985 209.25 293.985 209.27 294.025 209.29L296.695 210.37C296.755 210.397 296.785 210.443 296.785 210.51V211.61Z" fill="white"/>
<path d="M288.922 211.61C288.922 211.657 288.908 211.69 288.882 211.71C288.855 211.723 288.822 211.72 288.782 211.7L284.732 209.91C284.672 209.877 284.642 209.83 284.642 209.77V208.75C284.642 208.683 284.672 208.637 284.732 208.61L288.782 206.82C288.808 206.807 288.828 206.8 288.842 206.8C288.895 206.8 288.922 206.837 288.922 206.91V208C288.922 208.06 288.892 208.107 288.832 208.14L286.162 209.23C286.122 209.25 286.122 209.27 286.162 209.29L288.832 210.37C288.892 210.397 288.922 210.443 288.922 210.51V211.61Z" fill="white"/>
<path d="M281.058 211.61C281.058 211.657 281.045 211.69 281.018 211.71C280.992 211.723 280.958 211.72 280.918 211.7L276.868 209.91C276.808 209.877 276.778 209.83 276.778 209.77V208.75C276.778 208.683 276.808 208.637 276.868 208.61L280.918 206.82C280.945 206.807 280.965 206.8 280.978 206.8C281.032 206.8 281.058 206.837 281.058 206.91V208C281.058 208.06 281.028 208.107 280.968 208.14L278.298 209.23C278.258 209.25 278.258 209.27 278.298 209.29L280.968 210.37C281.028 210.397 281.058 210.443 281.058 210.51V211.61Z" fill="white"/>
<path d="M273.195 211.61C273.195 211.657 273.182 211.69 273.155 211.71C273.128 211.723 273.095 211.72 273.055 211.7L269.005 209.91C268.945 209.877 268.915 209.83 268.915 209.77V208.75C268.915 208.683 268.945 208.637 269.005 208.61L273.055 206.82C273.082 206.807 273.102 206.8 273.115 206.8C273.168 206.8 273.195 206.837 273.195 206.91V208C273.195 208.06 273.165 208.107 273.105 208.14L270.435 209.23C270.395 209.25 270.395 209.27 270.435 209.29L273.105 210.37C273.165 210.397 273.195 210.443 273.195 210.51V211.61Z" fill="white"/>
<path d="M265.332 211.61C265.332 211.657 265.318 211.69 265.292 211.71C265.265 211.723 265.232 211.72 265.192 211.7L261.142 209.91C261.082 209.877 261.052 209.83 261.052 209.77V208.75C261.052 208.683 261.082 208.637 261.142 208.61L265.192 206.82C265.218 206.807 265.238 206.8 265.252 206.8C265.305 206.8 265.332 206.837 265.332 206.91V208C265.332 208.06 265.302 208.107 265.242 208.14L262.572 209.23C262.532 209.25 262.532 209.27 262.572 209.29L265.242 210.37C265.302 210.397 265.332 210.443 265.332 210.51V211.61Z" fill="white"/>
<path d="M257.468 211.61C257.468 211.657 257.455 211.69 257.428 211.71C257.402 211.723 257.368 211.72 257.328 211.7L253.278 209.91C253.218 209.877 253.188 209.83 253.188 209.77V208.75C253.188 208.683 253.218 208.637 253.278 208.61L257.328 206.82C257.355 206.807 257.375 206.8 257.388 206.8C257.442 206.8 257.468 206.837 257.468 206.91V208C257.468 208.06 257.438 208.107 257.378 208.14L254.708 209.23C254.668 209.25 254.668 209.27 254.708 209.29L257.378 210.37C257.438 210.397 257.468 210.443 257.468 210.51V211.61Z" fill="white"/>
<path d="M249.605 211.61C249.605 211.657 249.592 211.69 249.565 211.71C249.539 211.723 249.505 211.72 249.465 211.7L245.415 209.91C245.355 209.877 245.325 209.83 245.325 209.77V208.75C245.325 208.683 245.355 208.637 245.415 208.61L249.465 206.82C249.492 206.807 249.512 206.8 249.525 206.8C249.579 206.8 249.605 206.837 249.605 206.91V208C249.605 208.06 249.575 208.107 249.515 208.14L246.845 209.23C246.805 209.25 246.805 209.27 246.845 209.29L249.515 210.37C249.575 210.397 249.605 210.443 249.605 210.51V211.61Z" fill="white"/>
<path d="M241.742 211.61C241.742 211.657 241.729 211.69 241.702 211.71C241.675 211.723 241.642 211.72 241.602 211.7L237.552 209.91C237.492 209.877 237.462 209.83 237.462 209.77V208.75C237.462 208.683 237.492 208.637 237.552 208.61L241.602 206.82C241.629 206.807 241.649 206.8 241.662 206.8C241.715 206.8 241.742 206.837 241.742 206.91V208C241.742 208.06 241.712 208.107 241.652 208.14L238.982 209.23C238.942 209.25 238.942 209.27 238.982 209.29L241.652 210.37C241.712 210.397 241.742 210.443 241.742 210.51V211.61Z" fill="white"/>
<path d="M233.879 211.61C233.879 211.657 233.865 211.69 233.839 211.71C233.812 211.723 233.779 211.72 233.739 211.7L229.689 209.91C229.629 209.877 229.599 209.83 229.599 209.77V208.75C229.599 208.683 229.629 208.637 229.689 208.61L233.739 206.82C233.765 206.807 233.785 206.8 233.799 206.8C233.852 206.8 233.879 206.837 233.879 206.91V208C233.879 208.06 233.849 208.107 233.789 208.14L231.119 209.23C231.079 209.25 231.079 209.27 231.119 209.29L233.789 210.37C233.849 210.397 233.879 210.443 233.879 210.51V211.61Z" fill="white"/>
<path d="M226.015 211.61C226.015 211.657 226.002 211.69 225.975 211.71C225.949 211.723 225.915 211.72 225.875 211.7L221.825 209.91C221.765 209.877 221.735 209.83 221.735 209.77V208.75C221.735 208.683 221.765 208.637 221.825 208.61L225.875 206.82C225.902 206.807 225.922 206.8 225.935 206.8C225.989 206.8 226.015 206.837 226.015 206.91V208C226.015 208.06 225.985 208.107 225.925 208.14L223.255 209.23C223.215 209.25 223.215 209.27 223.255 209.29L225.925 210.37C225.985 210.397 226.015 210.443 226.015 210.51V211.61Z" fill="white"/>
<path d="M218.152 211.61C218.152 211.657 218.139 211.69 218.112 211.71C218.085 211.723 218.052 211.72 218.012 211.7L213.962 209.91C213.902 209.877 213.872 209.83 213.872 209.77V208.75C213.872 208.683 213.902 208.637 213.962 208.61L218.012 206.82C218.039 206.807 218.059 206.8 218.072 206.8C218.125 206.8 218.152 206.837 218.152 206.91V208C218.152 208.06 218.122 208.107 218.062 208.14L215.392 209.23C215.352 209.25 215.352 209.27 215.392 209.29L218.062 210.37C218.122 210.397 218.152 210.443 218.152 210.51V211.61Z" fill="white"/>
<path d="M210.289 211.61C210.289 211.657 210.275 211.69 210.249 211.71C210.222 211.723 210.189 211.72 210.149 211.7L206.099 209.91C206.039 209.877 206.009 209.83 206.009 209.77V208.75C206.009 208.683 206.039 208.637 206.099 208.61L210.149 206.82C210.175 206.807 210.195 206.8 210.209 206.8C210.262 206.8 210.289 206.837 210.289 206.91V208C210.289 208.06 210.259 208.107 210.199 208.14L207.529 209.23C207.489 209.25 207.489 209.27 207.529 209.29L210.199 210.37C210.259 210.397 210.289 210.443 210.289 210.51V211.61Z" fill="white"/>
<path d="M202.426 211.61C202.426 211.657 202.412 211.69 202.386 211.71C202.359 211.723 202.326 211.72 202.286 211.7L198.236 209.91C198.176 209.877 198.146 209.83 198.146 209.77V208.75C198.146 208.683 198.176 208.637 198.236 208.61L202.286 206.82C202.312 206.807 202.332 206.8 202.346 206.8C202.399 206.8 202.426 206.837 202.426 206.91V208C202.426 208.06 202.396 208.107 202.336 208.14L199.666 209.23C199.626 209.25 199.626 209.27 199.666 209.29L202.336 210.37C202.396 210.397 202.426 210.443 202.426 210.51V211.61Z" fill="white"/>
<path d="M194.562 211.61C194.562 211.657 194.549 211.69 194.522 211.71C194.496 211.723 194.462 211.72 194.422 211.7L190.372 209.91C190.312 209.877 190.282 209.83 190.282 209.77V208.75C190.282 208.683 190.312 208.637 190.372 208.61L194.422 206.82C194.449 206.807 194.469 206.8 194.482 206.8C194.536 206.8 194.562 206.837 194.562 206.91V208C194.562 208.06 194.532 208.107 194.472 208.14L191.802 209.23C191.762 209.25 191.762 209.27 191.802 209.29L194.472 210.37C194.532 210.397 194.562 210.443 194.562 210.51V211.61Z" fill="white"/>
<path d="M186.699 211.61C186.699 211.657 186.686 211.69 186.659 211.71C186.632 211.723 186.599 211.72 186.559 211.7L182.509 209.91C182.449 209.877 182.419 209.83 182.419 209.77V208.75C182.419 208.683 182.449 208.637 182.509 208.61L186.559 206.82C186.586 206.807 186.606 206.8 186.619 206.8C186.672 206.8 186.699 206.837 186.699 206.91V208C186.699 208.06 186.669 208.107 186.609 208.14L183.939 209.23C183.899 209.25 183.899 209.27 183.939 209.29L186.609 210.37C186.669 210.397 186.699 210.443 186.699 210.51V211.61Z" fill="white"/>
<path d="M178.836 211.61C178.836 211.657 178.822 211.69 178.796 211.71C178.769 211.723 178.736 211.72 178.696 211.7L174.646 209.91C174.586 209.877 174.556 209.83 174.556 209.77V208.75C174.556 208.683 174.586 208.637 174.646 208.61L178.696 206.82C178.722 206.807 178.742 206.8 178.756 206.8C178.809 206.8 178.836 206.837 178.836 206.91V208C178.836 208.06 178.806 208.107 178.746 208.14L176.076 209.23C176.036 209.25 176.036 209.27 176.076 209.29L178.746 210.37C178.806 210.397 178.836 210.443 178.836 210.51V211.61Z" fill="white"/>
<path d="M170.972 211.61C170.972 211.657 170.959 211.69 170.932 211.71C170.906 211.723 170.872 211.72 170.832 211.7L166.782 209.91C166.722 209.877 166.692 209.83 166.692 209.77V208.75C166.692 208.683 166.722 208.637 166.782 208.61L170.832 206.82C170.859 206.807 170.879 206.8 170.892 206.8C170.946 206.8 170.972 206.837 170.972 206.91V208C170.972 208.06 170.942 208.107 170.882 208.14L168.212 209.23C168.172 209.25 168.172 209.27 168.212 209.29L170.882 210.37C170.942 210.397 170.972 210.443 170.972 210.51V211.61Z" fill="white"/>
<path d="M163.109 211.61C163.109 211.657 163.096 211.69 163.069 211.71C163.042 211.723 163.009 211.72 162.969 211.7L158.919 209.91C158.859 209.877 158.829 209.83 158.829 209.77V208.75C158.829 208.683 158.859 208.637 158.919 208.61L162.969 206.82C162.996 206.807 163.016 206.8 163.029 206.8C163.082 206.8 163.109 206.837 163.109 206.91V208C163.109 208.06 163.079 208.107 163.019 208.14L160.349 209.23C160.309 209.25 160.309 209.27 160.349 209.29L163.019 210.37C163.079 210.397 163.109 210.443 163.109 210.51V211.61Z" fill="white"/>
<path d="M155.246 211.61C155.246 211.657 155.232 211.69 155.206 211.71C155.179 211.723 155.146 211.72 155.106 211.7L151.056 209.91C150.996 209.877 150.966 209.83 150.966 209.77V208.75C150.966 208.683 150.996 208.637 151.056 208.61L155.106 206.82C155.132 206.807 155.152 206.8 155.166 206.8C155.219 206.8 155.246 206.837 155.246 206.91V208C155.246 208.06 155.216 208.107 155.156 208.14L152.486 209.23C152.446 209.25 152.446 209.27 152.486 209.29L155.156 210.37C155.216 210.397 155.246 210.443 155.246 210.51V211.61Z" fill="white"/>
<path d="M147.383 211.61C147.383 211.657 147.369 211.69 147.343 211.71C147.316 211.723 147.283 211.72 147.243 211.7L143.193 209.91C143.133 209.877 143.103 209.83 143.103 209.77V208.75C143.103 208.683 143.133 208.637 143.193 208.61L147.243 206.82C147.269 206.807 147.289 206.8 147.303 206.8C147.356 206.8 147.383 206.837 147.383 206.91V208C147.383 208.06 147.353 208.107 147.293 208.14L144.623 209.23C144.583 209.25 144.583 209.27 144.623 209.29L147.293 210.37C147.353 210.397 147.383 210.443 147.383 210.51V211.61Z" fill="white"/>
<path d="M139.519 211.61C139.519 211.657 139.506 211.69 139.479 211.71C139.453 211.723 139.419 211.72 139.379 211.7L135.329 209.91C135.269 209.877 135.239 209.83 135.239 209.77V208.75C135.239 208.683 135.269 208.637 135.329 208.61L139.379 206.82C139.406 206.807 139.426 206.8 139.439 206.8C139.493 206.8 139.519 206.837 139.519 206.91V208C139.519 208.06 139.489 208.107 139.429 208.14L136.759 209.23C136.719 209.25 136.719 209.27 136.759 209.29L139.429 210.37C139.489 210.397 139.519 210.443 139.519 210.51V211.61Z" fill="white"/>
<path d="M131.656 211.61C131.656 211.657 131.643 211.69 131.616 211.71C131.589 211.723 131.556 211.72 131.516 211.7L127.466 209.91C127.406 209.877 127.376 209.83 127.376 209.77V208.75C127.376 208.683 127.406 208.637 127.466 208.61L131.516 206.82C131.543 206.807 131.563 206.8 131.576 206.8C131.629 206.8 131.656 206.837 131.656 206.91V208C131.656 208.06 131.626 208.107 131.566 208.14L128.896 209.23C128.856 209.25 128.856 209.27 128.896 209.29L131.566 210.37C131.626 210.397 131.656 210.443 131.656 210.51V211.61Z" fill="white"/>
<path d="M123.793 211.61C123.793 211.657 123.779 211.69 123.753 211.71C123.726 211.723 123.693 211.72 123.653 211.7L119.603 209.91C119.543 209.877 119.513 209.83 119.513 209.77V208.75C119.513 208.683 119.543 208.637 119.603 208.61L123.653 206.82C123.679 206.807 123.699 206.8 123.713 206.8C123.766 206.8 123.793 206.837 123.793 206.91V208C123.793 208.06 123.763 208.107 123.703 208.14L121.033 209.23C120.993 209.25 120.993 209.27 121.033 209.29L123.703 210.37C123.763 210.397 123.793 210.443 123.793 210.51V211.61Z" fill="white"/>
<path d="M115.929 211.61C115.929 211.657 115.916 211.69 115.889 211.71C115.863 211.723 115.829 211.72 115.789 211.7L111.739 209.91C111.679 209.877 111.649 209.83 111.649 209.77V208.75C111.649 208.683 111.679 208.637 111.739 208.61L115.789 206.82C115.816 206.807 115.836 206.8 115.849 206.8C115.903 206.8 115.929 206.837 115.929 206.91V208C115.929 208.06 115.899 208.107 115.839 208.14L113.169 209.23C113.129 209.25 113.129 209.27 113.169 209.29L115.839 210.37C115.899 210.397 115.929 210.443 115.929 210.51V211.61Z" fill="white"/>
<path d="M108.066 211.61C108.066 211.657 108.053 211.69 108.026 211.71C107.999 211.723 107.966 211.72 107.926 211.7L103.876 209.91C103.816 209.877 103.786 209.83 103.786 209.77V208.75C103.786 208.683 103.816 208.637 103.876 208.61L107.926 206.82C107.953 206.807 107.973 206.8 107.986 206.8C108.039 206.8 108.066 206.837 108.066 206.91V208C108.066 208.06 108.036 208.107 107.976 208.14L105.306 209.23C105.266 209.25 105.266 209.27 105.306 209.29L107.976 210.37C108.036 210.397 108.066 210.443 108.066 210.51V211.61Z" fill="white"/>
<path d="M100.203 211.61C100.203 211.657 100.19 211.69 100.163 211.71C100.136 211.723 100.103 211.72 100.063 211.7L96.0128 209.91C95.9529 209.877 95.9229 209.83 95.9229 209.77V208.75C95.9229 208.683 95.9529 208.637 96.0128 208.61L100.063 206.82C100.09 206.807 100.11 206.8 100.123 206.8C100.176 206.8 100.203 206.837 100.203 206.91V208C100.203 208.06 100.173 208.107 100.113 208.14L97.4428 209.23C97.4028 209.25 97.4028 209.27 97.4428 209.29L100.113 210.37C100.173 210.397 100.203 210.443 100.203 210.51V211.61Z" fill="white"/>
<path d="M92.3396 211.61C92.3396 211.657 92.3262 211.69 92.2996 211.71C92.2729 211.723 92.2396 211.72 92.1996 211.7L88.1496 209.91C88.0896 209.877 88.0596 209.83 88.0596 209.77V208.75C88.0596 208.683 88.0896 208.637 88.1496 208.61L92.1996 206.82C92.2262 206.807 92.2462 206.8 92.2596 206.8C92.3129 206.8 92.3396 206.837 92.3396 206.91V208C92.3396 208.06 92.3096 208.107 92.2496 208.14L89.5796 209.23C89.5396 209.25 89.5396 209.27 89.5796 209.29L92.2496 210.37C92.3096 210.397 92.3396 210.443 92.3396 210.51V211.61Z" fill="white"/>
<path d="M84.4763 211.61C84.4763 211.657 84.463 211.69 84.4363 211.71C84.4096 211.723 84.3763 211.72 84.3363 211.7L80.2863 209.91C80.2263 209.877 80.1963 209.83 80.1963 209.77V208.75C80.1963 208.683 80.2263 208.637 80.2863 208.61L84.3363 206.82C84.363 206.807 84.3829 206.8 84.3963 206.8C84.4496 206.8 84.4763 206.837 84.4763 206.91V208C84.4763 208.06 84.4463 208.107 84.3863 208.14L81.7163 209.23C81.6763 209.25 81.6763 209.27 81.7163 209.29L84.3863 210.37C84.4463 210.397 84.4763 210.443 84.4763 210.51V211.61Z" fill="white"/>
<path d="M76.613 211.61C76.613 211.657 76.5997 211.69 76.573 211.71C76.5463 211.723 76.513 211.72 76.473 211.7L72.423 209.91C72.363 209.877 72.333 209.83 72.333 209.77V208.75C72.333 208.683 72.363 208.637 72.423 208.61L76.473 206.82C76.4997 206.807 76.5197 206.8 76.533 206.8C76.5863 206.8 76.613 206.837 76.613 206.91V208C76.613 208.06 76.583 208.107 76.523 208.14L73.853 209.23C73.813 209.25 73.813 209.27 73.853 209.29L76.523 210.37C76.583 210.397 76.613 210.443 76.613 210.51V211.61Z" fill="white"/>
<path d="M68.7497 211.61C68.7497 211.657 68.7364 211.69 68.7097 211.71C68.6831 211.723 68.6497 211.72 68.6097 211.7L64.5597 209.91C64.4997 209.877 64.4697 209.83 64.4697 209.77V208.75C64.4697 208.683 64.4997 208.637 64.5597 208.61L68.6097 206.82C68.6364 206.807 68.6564 206.8 68.6697 206.8C68.7231 206.8 68.7497 206.837 68.7497 206.91V208C68.7497 208.06 68.7197 208.107 68.6597 208.14L65.9897 209.23C65.9497 209.25 65.9497 209.27 65.9897 209.29L68.6597 210.37C68.7197 210.397 68.7497 210.443 68.7497 210.51V211.61Z" fill="white"/>
<path d="M60.8864 211.61C60.8864 211.657 60.8731 211.69 60.8464 211.71C60.8198 211.723 60.7864 211.72 60.7464 211.7L56.6964 209.91C56.6364 209.877 56.6064 209.83 56.6064 209.77V208.75C56.6064 208.683 56.6364 208.637 56.6964 208.61L60.7464 206.82C60.7731 206.807 60.7931 206.8 60.8064 206.8C60.8598 206.8 60.8864 206.837 60.8864 206.91V208C60.8864 208.06 60.8564 208.107 60.7964 208.14L58.1264 209.23C58.0864 209.25 58.0864 209.27 58.1264 209.29L60.7964 210.37C60.8564 210.397 60.8864 210.443 60.8864 210.51V211.61Z" fill="white"/>
<path d="M53.0232 211.61C53.0232 211.657 53.0098 211.69 52.9832 211.71C52.9565 211.723 52.9232 211.72 52.8832 211.7L48.8332 209.91C48.7732 209.877 48.7432 209.83 48.7432 209.77V208.75C48.7432 208.683 48.7732 208.637 48.8332 208.61L52.8832 206.82C52.9098 206.807 52.9298 206.8 52.9432 206.8C52.9965 206.8 53.0232 206.837 53.0232 206.91V208C53.0232 208.06 52.9932 208.107 52.9332 208.14L50.2632 209.23C50.2232 209.25 50.2232 209.27 50.2632 209.29L52.9332 210.37C52.9932 210.397 53.0232 210.443 53.0232 210.51V211.61Z" fill="white"/>
<path d="M45.1599 211.61C45.1599 211.657 45.1465 211.69 45.1199 211.71C45.0932 211.723 45.0599 211.72 45.0199 211.7L40.9699 209.91C40.9099 209.877 40.8799 209.83 40.8799 209.77V208.75C40.8799 208.683 40.9099 208.637 40.9699 208.61L45.0199 206.82C45.0465 206.807 45.0665 206.8 45.0799 206.8C45.1332 206.8 45.1599 206.837 45.1599 206.91V208C45.1599 208.06 45.1299 208.107 45.0699 208.14L42.3999 209.23C42.3599 209.25 42.3599 209.27 42.3999 209.29L45.0699 210.37C45.1299 210.397 45.1599 210.443 45.1599 210.51V211.61Z" fill="white"/>
<path d="M37.2966 211.61C37.2966 211.657 37.2833 211.69 37.2566 211.71C37.2299 211.723 37.1966 211.72 37.1566 211.7L33.1066 209.91C33.0466 209.877 33.0166 209.83 33.0166 209.77V208.75C33.0166 208.683 33.0466 208.637 33.1066 208.61L37.1566 206.82C37.1833 206.807 37.2033 206.8 37.2166 206.8C37.2699 206.8 37.2966 206.837 37.2966 206.91V208C37.2966 208.06 37.2666 208.107 37.2066 208.14L34.5366 209.23C34.4966 209.25 34.4966 209.27 34.5366 209.29L37.2066 210.37C37.2666 210.397 37.2966 210.443 37.2966 210.51V211.61Z" fill="white"/>
<path d="M29.4333 211.61C29.4333 211.657 29.42 211.69 29.3933 211.71C29.3667 211.723 29.3333 211.72 29.2933 211.7L25.2433 209.91C25.1833 209.877 25.1533 209.83 25.1533 209.77V208.75C25.1533 208.683 25.1833 208.637 25.2433 208.61L29.2933 206.82C29.32 206.807 29.34 206.8 29.3533 206.8C29.4067 206.8 29.4333 206.837 29.4333 206.91V208C29.4333 208.06 29.4033 208.107 29.3433 208.14L26.6733 209.23C26.6333 209.25 26.6333 209.27 26.6733 209.29L29.3433 210.37C29.4033 210.397 29.4333 210.443 29.4333 210.51V211.61Z" fill="white"/>
<path d="M21.57 211.61C21.57 211.657 21.5567 211.69 21.53 211.71C21.5034 211.723 21.47 211.72 21.43 211.7L17.38 209.91C17.32 209.877 17.29 209.83 17.29 209.77V208.75C17.29 208.683 17.32 208.637 17.38 208.61L21.43 206.82C21.4567 206.807 21.4767 206.8 21.49 206.8C21.5434 206.8 21.57 206.837 21.57 206.91V208C21.57 208.06 21.54 208.107 21.48 208.14L18.81 209.23C18.77 209.25 18.77 209.27 18.81 209.29L21.48 210.37C21.54 210.397 21.57 210.443 21.57 210.51V211.61Z" fill="white"/>
<path d="M73 3H28C14.1929 3 3 14.1929 3 28V84.3439M306 3H351C364.807 3 376 14.1929 376 28V84.3439M376 173.656V230C376 243.807 364.807 255 351 255H306M73 255H28C14.1929 255 3 243.807 3 230V173.656" stroke="white" stroke-width="5" stroke-linecap="round"/>
</svg>
