<svg width="31" height="30" viewBox="0 0 31 30" fill="none" xmlns="http://www.w3.org/2000/svg">
<path d="M15.5 0C7.21566 0 0.5 6.71566 0.5 15C0.5 23.2843 7.21566 30 15.5 30C23.7843 30 30.5 23.2843 30.5 15C30.5 6.71566 23.7843 0 15.5 0Z" fill="#FB2191"/>
<path d="M14.944 15.6069C14.555 15.6069 14.1659 15.6069 13.7769 15.6069C13.6662 15.6069 13.559 15.6001 13.474 15.51C13.3057 15.3309 13.32 15.0416 13.5076 14.8831C13.5818 14.8209 13.6708 14.8135 13.7615 14.8129C13.9959 14.8118 14.2304 14.8112 14.4648 14.8118C14.8088 14.8118 15.1528 14.814 15.4973 14.8146C15.6199 14.8146 15.6371 14.8004 15.6371 14.6794C15.6365 14.4997 15.6393 14.3201 15.6262 14.1409C15.5874 13.6042 15.2942 13.2402 14.8139 13.0343C14.349 12.8347 13.8761 12.8518 13.4324 13.105C13.0969 13.2961 12.8733 13.5848 12.8106 13.9749C12.7838 14.1415 12.7701 14.3115 12.7678 14.4803C12.7621 14.9196 12.7672 15.3582 12.7667 15.7975C12.7667 15.9355 12.749 16.0724 12.6201 16.154C12.5545 16.1951 12.4775 16.2241 12.4016 16.2418C12.2584 16.2755 12.1232 16.2298 12 16.1614C11.8808 16.0947 11.8306 15.9777 11.8317 15.8459C11.838 15.1979 11.7952 14.5488 11.8637 13.9025C11.895 13.6059 12.0165 13.3361 12.1803 13.0879C12.5083 12.5917 12.9612 12.2597 13.5385 12.1268C14.4768 11.91 15.3131 12.1085 15.9879 12.8215C16.2292 13.0765 16.3934 13.3823 16.4916 13.7268C16.5674 13.9949 16.5908 14.2641 16.5897 14.5391C16.5891 14.7336 16.5931 14.9281 16.5885 15.1226C16.5863 15.1962 16.5766 15.2738 16.5497 15.3411C16.4881 15.4963 16.3746 15.5932 16.2001 15.6024C16.1453 15.6052 16.0906 15.6064 16.0358 15.6064C15.6719 15.6064 15.3074 15.6064 14.9434 15.6064" fill="white"/>
<path d="M19.1565 14.0685C19.1565 14.8015 19.1559 15.5345 19.1565 16.2675C19.1565 16.8162 19.1588 17.365 19.1605 17.9138C19.1605 18.0518 19.1354 18.1847 19.0441 18.2902C18.9038 18.4522 18.7144 18.4716 18.5216 18.4249C18.2746 18.3655 18.2079 18.256 18.1822 17.9799C18.1674 17.8265 18.1782 17.6707 18.1782 17.5162V13.9704C18.1782 12.9231 18.1782 11.8758 18.1782 10.8279C18.1782 10.7982 18.1765 10.768 18.1782 10.7383C18.1811 10.6676 18.1474 10.6408 18.0778 10.6425C17.9529 10.6459 17.828 10.6505 17.7036 10.6436C17.5405 10.6339 17.3825 10.5974 17.294 10.44C17.1919 10.258 17.1919 10.0675 17.2815 9.88211C17.3579 9.7241 17.5097 9.67162 17.6677 9.66706C18.0065 9.65736 18.3459 9.66078 18.6848 9.66649C18.7629 9.66763 18.8433 9.69045 18.9169 9.7184C19.0932 9.784 19.1246 9.94657 19.1559 10.1046C19.1662 10.1576 19.1611 10.2141 19.1611 10.2689C19.1599 11.4856 19.1588 12.7029 19.1571 13.9196V14.0691H19.1559L19.1565 14.0685Z" fill="white"/>
<path d="M22.4672 16.5693C22.4672 17.3576 22.4672 18.1454 22.4672 18.9343C22.4672 19.3513 22.3389 19.73 22.101 20.0683C21.9002 20.3529 21.6213 20.5109 21.2653 20.5109C21.056 20.5109 20.8461 20.5029 20.6367 20.5132C20.4776 20.5212 20.3281 20.4881 20.1832 20.4356C19.8763 20.3238 19.8079 20.0489 19.9322 19.7916C19.9961 19.6593 20.1148 19.5789 20.2699 19.5806C20.3646 19.5811 20.4582 19.5954 20.5523 19.6028C20.6715 19.6125 20.7913 19.6336 20.91 19.6296C21.2596 19.6188 21.3925 19.4779 21.4627 19.1356C21.5066 18.9229 21.5095 18.6993 21.5095 18.4808C21.5135 17.0393 21.5118 15.5973 21.5118 14.1552C21.5118 14.1256 21.5112 14.0948 21.5129 14.0657C21.5266 13.8255 21.6384 13.6846 21.8546 13.635C22.0879 13.5814 22.3309 13.6681 22.4267 13.8546C22.461 13.9213 22.4672 14.008 22.4678 14.0851C22.4718 14.6886 22.4706 15.2927 22.4712 15.8962C22.4712 16.1209 22.4712 16.3451 22.4712 16.5698H22.4678L22.4672 16.5693Z" fill="white"/>
<path d="M21.501 12.1176C21.4759 12.0498 21.4531 11.9853 21.4286 11.9214C21.3082 11.6037 21.2055 11.286 21.2141 10.9363C21.2272 10.3967 21.5763 9.92207 22.0492 9.72584C22.2597 9.63913 22.4742 9.59122 22.7018 9.58038C23.1906 9.55699 23.6675 9.61004 24.1296 9.77547C24.1763 9.79201 24.2231 9.81026 24.2682 9.83194C24.4735 9.93005 24.5562 10.1354 24.4992 10.355C24.4131 10.687 24.1472 10.7172 23.9196 10.6345C23.6384 10.5324 23.3486 10.4543 23.044 10.4697C22.825 10.4811 22.6191 10.5376 22.4456 10.675C22.3036 10.7874 22.2158 10.9323 22.2084 11.1217C22.1998 11.3379 22.2072 11.5495 22.303 11.7503C22.3458 11.8398 22.3806 11.9345 22.4069 12.0298C22.4331 12.1245 22.489 12.153 22.582 12.1519C22.9014 12.1485 23.2209 12.1485 23.5403 12.1519C23.6139 12.153 23.6898 12.1627 23.7599 12.1844C23.947 12.2431 24.0383 12.3646 24.0411 12.5609C24.0423 12.6487 24.0389 12.744 24.0069 12.8238C23.9339 13.0064 23.7787 13.0794 23.5888 13.0805C23.1895 13.0817 22.7908 13.0805 22.3915 13.0805H21.2689C21.2192 13.0805 21.169 13.0817 21.1194 13.0783C20.8638 13.06 20.7332 12.9071 20.7138 12.6527C20.6842 12.27 20.934 12.153 21.2118 12.1496C21.3036 12.1485 21.3995 12.1718 21.5022 12.1171" fill="white"/>
<path d="M10.6075 16.6212C10.6315 16.9634 10.5568 17.2846 10.3839 17.5806C10.1535 17.9748 9.82321 18.252 9.38683 18.3918C9.00179 18.515 8.60991 18.5447 8.20661 18.4768C7.92539 18.43 7.64873 18.3718 7.38291 18.2692C7.21578 18.2047 7.05092 18.1328 6.88778 18.0587C6.75259 17.9976 6.64478 17.9109 6.59686 17.758C6.50559 17.4677 6.67615 17.203 6.97905 17.1802C7.15303 17.1677 7.31275 17.2253 7.47247 17.2823C7.67896 17.3565 7.88204 17.4415 8.09367 17.4939C8.40455 17.5709 8.71943 17.612 9.03773 17.5122C9.3315 17.4198 9.60587 17.1083 9.6304 16.8094C9.66235 16.4198 9.53286 16.1283 9.19574 15.9298C9.1444 15.8996 9.09705 15.8602 9.04343 15.8363C8.82667 15.7387 8.75765 15.4581 8.89227 15.2322C9.0132 15.0285 9.2505 14.9396 9.46041 15.0474C9.70342 15.1723 9.94642 15.3058 10.1638 15.4695C10.4398 15.6771 10.5636 15.9846 10.6053 16.3223C10.6172 16.4204 10.607 16.5214 10.607 16.6212" fill="white"/>
<path d="M8.71637 12.0298C9.26683 12.0509 9.7825 12.1838 10.2628 12.4519C10.455 12.5586 10.5326 12.7217 10.5064 12.9385C10.4727 13.218 10.224 13.3886 9.95534 13.3081C9.8076 13.2642 9.66157 13.2106 9.51896 13.1524C9.18298 13.0149 8.83616 12.9699 8.47907 13.0246C8.11856 13.08 7.8014 13.323 7.8054 13.7702C7.80768 14.0178 7.88183 14.2185 8.08262 14.368C8.14651 14.4153 8.2104 14.4633 8.27372 14.5117C8.52071 14.7023 8.50474 15.0474 8.24177 15.2191C8.09803 15.3126 7.94116 15.3446 7.78771 15.2658C7.51961 15.1295 7.26691 14.9698 7.09407 14.712C6.84308 14.3378 6.77349 13.9248 6.83396 13.4833C6.88586 13.1079 7.04901 12.7925 7.32795 12.5358C7.58863 12.2956 7.89667 12.153 8.24292 12.0926C8.39978 12.0652 8.55893 12.0503 8.71694 12.0292" fill="white"/>
<path d="M14.1905 18.5321C13.7513 18.5195 13.3354 18.4403 12.9612 18.2012C12.7234 18.0489 12.5169 17.8618 12.3457 17.6388C12.1792 17.422 12.2191 17.1448 12.4324 16.9737C12.6247 16.8185 12.9053 16.8442 13.0764 17.0438C13.1911 17.1779 13.3177 17.2954 13.4621 17.3952C13.6201 17.5048 13.7923 17.5778 13.9886 17.5858C14.0536 17.5886 14.118 17.5943 14.1825 17.5977C14.4934 17.6148 14.786 17.5435 15.0661 17.4141C15.2059 17.349 15.3433 17.2772 15.4842 17.2144C15.7307 17.1055 15.9948 17.1996 16.0786 17.442C16.1579 17.6725 16.1191 17.8898 15.9035 18.0199C15.5555 18.2303 15.1853 18.3889 14.782 18.4568C14.5864 18.4899 14.3879 18.507 14.1905 18.5315" fill="white"/>
</svg>
