<svg width="21" height="22" viewBox="0 0 21 22" fill="none" xmlns="http://www.w3.org/2000/svg">
<g id="icon/keyboard">
<path id="Vector" d="M18.375 4.43756H2.625C2.2769 4.43756 1.94306 4.57584 1.69692 4.82198C1.45078 5.06812 1.3125 5.40196 1.3125 5.75006V16.2501C1.3125 16.5982 1.45078 16.932 1.69692 17.1781C1.94306 17.4243 2.2769 17.5626 2.625 17.5626H18.375C18.7231 17.5626 19.0569 17.4243 19.3031 17.1781C19.5492 16.932 19.6875 16.5982 19.6875 16.2501V5.75006C19.6875 5.40196 19.5492 5.06812 19.3031 4.82198C19.0569 4.57584 18.7231 4.43756 18.375 4.43756ZM5.25 14.2813H3.9375C3.76345 14.2813 3.59653 14.2122 3.47346 14.0891C3.35039 13.966 3.28125 13.7991 3.28125 13.6251C3.28125 13.451 3.35039 13.2841 3.47346 13.161C3.59653 13.038 3.76345 12.9688 3.9375 12.9688H5.25C5.42405 12.9688 5.59097 13.038 5.71404 13.161C5.83711 13.2841 5.90625 13.451 5.90625 13.6251C5.90625 13.7991 5.83711 13.966 5.71404 14.0891C5.59097 14.2122 5.42405 14.2813 5.25 14.2813ZM13.125 14.2813H7.875C7.70095 14.2813 7.53403 14.2122 7.41096 14.0891C7.28789 13.966 7.21875 13.7991 7.21875 13.6251C7.21875 13.451 7.28789 13.2841 7.41096 13.161C7.53403 13.038 7.70095 12.9688 7.875 12.9688H13.125C13.299 12.9688 13.466 13.038 13.589 13.161C13.7121 13.2841 13.7812 13.451 13.7812 13.6251C13.7812 13.7991 13.7121 13.966 13.589 14.0891C13.466 14.2122 13.299 14.2813 13.125 14.2813ZM17.0625 14.2813H15.75C15.576 14.2813 15.409 14.2122 15.286 14.0891C15.1629 13.966 15.0938 13.7991 15.0938 13.6251C15.0938 13.451 15.1629 13.2841 15.286 13.161C15.409 13.038 15.576 12.9688 15.75 12.9688H17.0625C17.2365 12.9688 17.4035 13.038 17.5265 13.161C17.6496 13.2841 17.7188 13.451 17.7188 13.6251C17.7188 13.7991 17.6496 13.966 17.5265 14.0891C17.4035 14.2122 17.2365 14.2813 17.0625 14.2813ZM17.0625 11.6563H3.9375C3.76345 11.6563 3.59653 11.5872 3.47346 11.4641C3.35039 11.341 3.28125 11.1741 3.28125 11.0001C3.28125 10.826 3.35039 10.6591 3.47346 10.536C3.59653 10.413 3.76345 10.3438 3.9375 10.3438H17.0625C17.2365 10.3438 17.4035 10.413 17.5265 10.536C17.6496 10.6591 17.7188 10.826 17.7188 11.0001C17.7188 11.1741 17.6496 11.341 17.5265 11.4641C17.4035 11.5872 17.2365 11.6563 17.0625 11.6563ZM17.0625 9.03131H3.9375C3.76345 9.03131 3.59653 8.96217 3.47346 8.8391C3.35039 8.71603 3.28125 8.54911 3.28125 8.37506C3.28125 8.20101 3.35039 8.03409 3.47346 7.91102C3.59653 7.78795 3.76345 7.71881 3.9375 7.71881H17.0625C17.2365 7.71881 17.4035 7.78795 17.5265 7.91102C17.6496 8.03409 17.7188 8.20101 17.7188 8.37506C17.7188 8.54911 17.6496 8.71603 17.5265 8.8391C17.4035 8.96217 17.2365 9.03131 17.0625 9.03131Z" fill="white"/>
</g>
</svg>
