<svg width="42" height="43" viewBox="0 0 42 43" fill="none" xmlns="http://www.w3.org/2000/svg">
<rect y="0.5" width="42" height="42" rx="8" fill="white"/>
<path d="M11 16.1667C11 14.6939 12.1939 13.5 13.6667 13.5H17.2864C17.7322 13.5 18.1485 13.7228 18.3958 14.0937L19.6042 15.9063C19.8515 16.2772 20.2678 16.5 20.7136 16.5H26.3333C27.8061 16.5 29 17.6939 29 19.1667V26.8333C29 28.3061 27.8061 29.5 26.3333 29.5H13.6667C12.1939 29.5 11 28.3061 11 26.8333V16.1667Z" stroke="#FB2191" stroke-width="2"/>
<path d="M18.7916 14.6875L19.6236 14.1328L18.7916 14.6875ZM19.6041 15.9063L20.4361 15.3516L20.4361 15.3516L19.6041 15.9063ZM26.9999 16.5V17.5H27.9999V16.5H26.9999ZM16.5728 14.5H24.3332V12.5H16.5728V14.5ZM16.5728 14.5C17.13 14.5 17.6504 14.7785 17.9595 15.2422L19.6236 14.1328C18.9436 13.1127 17.7987 12.5 16.5728 12.5V14.5ZM17.9595 15.2422L18.772 16.461L20.4361 15.3516L19.6236 14.1328L17.9595 15.2422ZM18.772 16.461C19.2048 17.1101 19.9333 17.5 20.7135 17.5V15.5C20.602 15.5 20.498 15.4443 20.4361 15.3516L18.772 16.461ZM20.7135 17.5H26.9999V15.5H20.7135V17.5ZM25.9999 16.1667V16.5H27.9999V16.1667H25.9999ZM24.3332 14.5C25.2537 14.5 25.9999 15.2462 25.9999 16.1667H27.9999C27.9999 14.1416 26.3583 12.5 24.3332 12.5V14.5Z" fill="#FB2191"/>
</svg>
