<svg width="16" height="12" viewBox="0 0 16 12" fill="none" xmlns="http://www.w3.org/2000/svg">
<g id="ic/resend">
<g id="Icon 24px">
<path id="Shape" fill-rule="evenodd" clip-rule="evenodd" d="M12.7727 3.60227L10.0454 6.32955H12.0909C12.0909 8.58636 10.2568 10.4205 7.99999 10.4205C7.31136 10.4205 6.65681 10.25 6.0909 9.94318L5.09545 10.9386C5.93408 11.4705 6.92954 11.7841 7.99999 11.7841C11.0136 11.7841 13.4545 9.34318 13.4545 6.32955H15.5L12.7727 3.60227ZM3.90909 6.32955C3.90909 4.07273 5.74318 2.23864 8 2.23864C8.68864 2.23864 9.34318 2.40909 9.90909 2.71591L10.9045 1.72045C10.0659 1.18864 9.07045 0.875 8 0.875C4.98636 0.875 2.54545 3.31591 2.54545 6.32955H0.5L3.22727 9.05682L5.95455 6.32955H3.90909Z" fill="#3895FF"/>
</g>
</g>
</svg>
